<?xml version="1.0" encoding="UTF-8" standalone="no"?>
<!-- Created with Inkscape (http://www.inkscape.org/) -->

<svg
   version="1.1"
   id="svg1"
   width="793.20831"
   height="207.57031"
   viewBox="0 0 793.20831 207.57031"
   sodipodi:docname="resumeconverter.svg"
   inkscape:version="1.4.2 (f4327f4, 2025-05-13)"
   xmlns:inkscape="http://www.inkscape.org/namespaces/inkscape"
   xmlns:sodipodi="http://sodipodi.sourceforge.net/DTD/sodipodi-0.dtd"
   xmlns="http://www.w3.org/2000/svg"
   xmlns:svg="http://www.w3.org/2000/svg">
  <defs
     id="defs1" />
  <sodipodi:namedview
     id="namedview1"
     pagecolor="#ffffff"
     bordercolor="#000000"
     borderopacity="0.24705882"
     inkscape:showpageshadow="false"
     inkscape:pageopacity="0.0"
     inkscape:pagecheckerboard="true"
     inkscape:deskcolor="#d1d1d1"
     showborder="false"
     borderlayer="false"
     inkscape:antialias-rendering="false"
     inkscape:zoom="0.78808594"
     inkscape:cx="1155.9653"
     inkscape:cy="45.045849"
     inkscape:window-width="3840"
     inkscape:window-height="1009"
     inkscape:window-x="-8"
     inkscape:window-y="-8"
     inkscape:window-maximized="1"
     inkscape:current-layer="svg1" />
  <path
     style="fill:#a3ebf5"
     d="m 110.58928,206.64446 -0.52876,-0.85555 2.46974,0.47212 2.46974,0.47212 v 0.38343 0.38342 h -1.94098 -1.94099 z M 55.40499,204.25 53.5,202 l 2.25,1.90499 2.25,1.90499 v 0.34501 0.34501 h -0.34501 -0.34501 z m 22,-1 L 75.5,201 l 2.25,1.90499 2.25,1.90499 v 0.34501 0.34501 h -0.34501 -0.34501 z m 350.40751,-2.43311 1.3125,-0.52522 0.60417,0.60416 0.60416,0.60417 -1.91666,-0.0789 -1.91667,-0.0789 z m 5,0 1.3125,-0.52522 0.60417,0.60416 0.60416,0.60417 -1.91666,-0.0789 -1.91667,-0.0789 z m 27.45653,-0.01 1.76903,-0.46099 1.23097,0.49804 1.23097,0.49805 -3,-0.0371 -3,-0.0371 z m 152.48097,0.0307 1.25,-0.50439 1.25,0.50439 1.25,0.50439 h -2.5 -2.5 z m 5.5,-0.0271 1.75,-0.45732 1.75,0.45732 1.75,0.45733 h -3.5 -3.5 z m -162.17105,-1.894 0.0789,-1.91667 0.52522,1.3125 0.52522,1.3125 -0.60416,0.60417 L 456,200.83333 Z m 0.30959,-15.91667 0.003,-13 0.35078,6.79159 0.35078,6.79159 -0.35396,6.20841 -0.35396,6.20841 z M 596.5,194.5 l -0.61803,-1 H 596.94098 598 v 1 1 h -0.44098 -0.44099 z M 590.01429,185.08571 591,184.1 l 0.98571,0.98571 0.98572,0.98572 H 591 589.02857 Z m -32.13653,-7.86685 0.78452,-0.78114 12.91886,0.28515 L 584.5,177.00801 570.79662,177.504 557.09323,178 Z m 149.03694,-0.0336 0.8217,-0.82173 3.8818,0.33938 3.8818,0.33938 -4.7035,0.48235 -4.7035,0.48235 z m 24.0853,0.3035 -8.5,-0.61618 12.9167,-0.18631 12.9166,-0.1863 -0.4865,0.48655 -0.4866,0.48655 -3.9301,0.31593 -3.9301,0.31594 z m -141.23834,-0.69605 2.26166,-0.4349 1.73834,0.45508 1.73834,0.45508 -4,-0.0202 -4,-0.0202 z M 653.3605,165.5 V 156 l 0.37454,4.75 0.37454,4.75 -0.37454,4.75 -0.37454,4.75 z m 15.83445,5.5 0.0371,-3 0.46099,1.76903 0.46099,1.76903 -0.49804,1.23097 L 669.15794,174 Z M 772,167.55902 v -0.94099 l 0.9885,-0.61095 0.9886,-0.61096 -0.5955,1.55194 L 772.786,168.5 H 772.393 772 Z M 669.19495,164 l 0.0371,-3 0.46099,1.76903 0.46099,1.76903 -0.49804,1.23097 L 669.15794,167 Z m -379,-1 0.0371,-3 0.46099,1.76903 0.46099,1.76903 -0.49804,1.23097 L 290.15794,166 Z m 351.884,-12.08333 0.0789,-1.91667 0.52522,1.3125 0.52522,1.3125 -0.60416,0.60417 L 642,152.83333 Z M 791.5,148.5 l 0.618,-1 h 0.441 0.441 v 1 1 h -1.059 -1.059 z m -19.4211,-2.58333 0.079,-1.91667 0.5252,1.3125 0.5252,1.3125 -0.6041,0.60417 -0.6042,0.60416 z m 15.6544,-3.54076 1.2334,-1.24258 0.5598,0.5598 0.5598,0.55979 -1.7932,0.68279 -1.7931,0.68278 z M 653.19495,139 l 0.0371,-3 0.46099,1.76903 0.46099,1.76903 -0.49804,1.23097 L 653.15794,142 Z m 15.96294,-0.5 V 136 l 0.50439,1.25 0.50439,1.25 -0.50439,1.25 -0.50439,1.25 z M 38.94617,127.75 35.5,124 l 3.75,3.44617 3.75,3.44616 V 131.19617 131.5 H 42.69617 42.39233 Z M 307,120.10699 v -0.39301 l 1.55194,-0.59554 1.55194,-0.59553 -0.61096,0.98854 -0.61095,0.98855 H 307.94098 307 Z m -224.75967,-6.18065 0.57367,-0.57367 4.843,-0.32375 4.843,-0.32375 14.2517,-0.19533 14.2517,-0.19532 -0.56298,-0.91093 -0.56299,-0.91093 -2.43872,0.61208 L 115,111.71682 v -1.58852 -1.58852 l -21.25,-0.29087 -21.25,-0.29087 37.14301,-0.22902 37.14301,-0.22902 0.60341,1.57244 0.6034,1.57244 -1.0316,1.92756 -1.0316,1.92756 H 113.79815 81.66667 Z M 130,111.70353 v -0.79646 l -2.41702,0.0465 -2.41702,0.0465 -0.74965,0.75 -0.74964,0.75 H 126.83333 130 Z M 146,110.5 v -2 h -3.55902 -3.55901 l 0.61616,0.99698 0.61617,0.99697 L 137.5,109.5 l -2.6143,-0.99395 0.61617,0.99697 0.61616,0.99698 H 134.05902 132 v 1 1 h 7 7 z m -25.73097,-1.65594 -1.23097,-0.49804 -1.76903,0.46099 -1.76903,0.46099 3,0.0371 3,0.0371 z m 9.98097,-0.006 -1.25,-0.50439 -1.25,0.50439 -1.25,0.50439 h 2.5 2.5 z m -80.17105,0.079 0.0789,-1.91667 0.52522,1.3125 0.52522,1.3125 -0.60416,0.60417 L 50,110.83333 Z m 56.73355,0.90022 1.3125,-0.52522 0.60417,0.60416 0.60416,0.60417 -1.91666,-0.079 -1.91667,-0.0789 z M 50.46092,59 50.4613,13 50.74925,36.31858 51.0372,59.63715 50.74887,82.31858 50.46053,105 Z M 581.15789,90.5 V 88 l 0.50439,1.25 0.50439,1.25 -0.50439,1.25 -0.50439,1.25 z M 69.49447,90.491 68.8709,89.48205 69.50284,87.491 70.13478,85.5 H 71.26739 72.4 l -1.12186,1.12186 -1.12185,1.12185 0.52884,1.37815 0.52885,1.37814 h 1.15246 1.15247 l 1.22383,-1.95966 1.22383,-1.95967 -1.73329,-1.00993 -1.73328,-1.00992 44.12756,-0.0304 44.12755,-0.0304 1.08059,1.30204 1.0806,1.30203 -0.57478,2.19797 L 161.76674,91.5 H 115.94239 70.11803 Z M 598.39172,75.5 V 62 l 0.34983,6.75 0.34983,6.75 -0.34983,6.75 -0.34983,6.75 z m -300.23383,2 V 75 l 0.50439,1.25 0.50439,1.25 -0.50439,1.25 -0.50439,1.25 z m 396.34211,1 0.618,-1 h 0.441 0.441 v 1 1 h -1.059 -1.059 z m -205.04112,-6.06653 -0.65915,-1.06653 0.4766,-0.4766 0.47659,-0.4766 0.59216,1.54313 0.59215,1.54313 h -0.4096 -0.4096 z M 512.40479,56 l 0.002,-16 0.33766,8.29748 0.33767,8.29748 -0.33997,7.70252 L 512.40219,72 Z m 190.79011,11 0.037,-3 0.461,1.76903 0.461,1.76903 -0.4981,1.23097 L 703.1578,70 Z M 302,67.5 l 1.5,-0.96937 0.80902,-0.0153 0.80901,-0.0153 -0.61803,1 -0.61803,1 -1.69099,-0.0153 L 300.5,68.46943 Z M 410.07895,65.91667 410.15785,64 l 0.52522,1.3125 0.52522,1.3125 -0.60416,0.60417 L 410,67.83333 Z M 581.19495,64 l 0.0371,-3 0.46099,1.76903 0.46099,1.76903 -0.49804,1.23097 L 581.15794,67 Z M 409.62354,61.96134 409,60.33643 409.0304,59.66821 409.0608,59 l 1.06125,1.825 1.06126,1.82501 -0.46813,0.46812 -0.46812,0.46813 z m 276.18896,-1.14445 1.3125,-0.52522 0.6042,0.60416 L 688.3333,61.5 686.4167,61.421 684.5,61.3421 Z M 666,51.55902 v -0.94099 l 0.98855,-0.61095 0.98854,-0.61096 -0.59553,1.55194 L 666.78602,52.5 H 666.39301 666 Z M 298.07895,49.91667 298.15785,48 l 0.52522,1.3125 0.52522,1.3125 -0.60416,0.60417 L 298,51.83333 Z M 25.5,48.5 l 1.80998,-2 h 0.5 0.5 l -1.80998,2 -1.80998,2 h -0.5 -0.5 z m 272.732,-4 V 41 l 0.45733,1.75 0.45732,1.75 -0.45732,1.75 L 298.232,48 Z M 69.88931,38.75 69.77862,38 l 0.15532,-2.5 0.15532,-2.5 -1.02932,1.5 -1.02931,1.5 -0.0153,-1.69098 -0.0153,-1.69099 1.08712,-0.67187 1.08712,-0.67188 -0.49386,-1.88852 -0.49386,-1.88852 0.65674,0.39642 0.65674,0.39642 1.18989,-1.28848 1.18989,-1.28849 L 72.52325,25.35656 72.1667,25 h 28.32117 28.32118 l -0.29955,0.5 -0.29955,0.5 1.28848,1.18989 1.28849,1.18989 0.60655,-0.60656 L 132,27.16667 v 4.59928 4.59927 l -2.01452,0.63939 -2.01452,0.63938 0.57354,0.92801 0.57353,0.928 H 99.55902 70 Z M 313.5,27.5 l -0.61803,-1 h 1 1 l 0.61803,1 0.61803,1 h -1 -1 z m -12.23097,-0.69299 1.76903,-0.46099 1.23097,0.49804 1.23097,0.49805 -3,-0.0371 -3,-0.0371 z"
     id="path8" />
  <path
     style="fill:#a1a5ab"
     d="m 72.8125,206.81689 1.3125,-0.52522 0.60417,0.60416 L 75.33333,207.5 73.41667,207.4211 71.5,207.3422 Z m 44.94916,-0.0241 2.26166,-0.4349 1.73834,0.45508 1.73834,0.45508 -4,-0.0202 -4,-0.0202 z m 191.32167,-4.65318 0.41667,-0.36045 8,-0.52505 8,-0.52505 -3,0.76718 -3,0.76718 -5.41667,0.11832 -5.41666,0.11826 z m 57.589,-1.07219 -4.82768,-1.29764 -4.17232,-2.91652 -4.17233,-2.91652 -3.25,-4.83136 -3.25,-4.83136 0.009,-1.13698 0.009,-1.13699 3.0138,5.25518 3.0138,5.25518 5.22682,3.45961 5.22681,3.4596 5.45056,1.16109 5.45056,1.16109 6.54944,-0.51845 6.54944,-0.51845 -2.5,0.7929 -2.5,0.79289 -5.5,0.0322 -5.5,0.0322 z m 198.411,1.06981 0.41667,-0.36282 9.5,-0.49393 9.5,-0.49394 -3,0.73844 -3,0.73844 -6.91667,0.11832 -6.91666,0.11826 z m 99.41667,-0.56589 -3,-0.72399 -2.30351,-1.23747 -2.30351,-1.23747 -1.94275,-3.18618 -1.94275,-3.18618 0.12142,-3.5 0.12143,-3.5 0.67961,4 0.67961,4 1.22487,2.23965 1.22487,2.23965 3.22035,1.72942 3.22036,1.72942 9,-0.0154 9,-0.0154 -2.5,0.69668 -2.5,0.69667 -4.5,-0.003 -4.5,-0.003 z m 58.5,-0.0364 9.5,-0.8232 5.8188,-2.20346 5.8189,-2.20345 0.517,-1.34739 0.5171,-1.3474 -3.134,-4.555 -3.1339,-4.555 0.7981,0.0316 0.798,0.0316 2.8523,4.69447 2.8523,4.69447 -0.9461,1.52392 -0.9461,1.52392 -5.9062,2.3898 -5.9062,2.38979 -9.5,0.28926 -9.5,0.28925 z m -423,-0.97003 -2.5,-0.76322 -4.5,-2.2839 -4.5,-2.2839 -3.81434,-3.00191 -3.81433,-3.00191 -3.43567,-5.10167 L 274,179.0267 v -0.95913 -0.95913 l 2.88201,4.54445 2.88201,4.54446 3.56022,3.56022 3.56022,3.56023 6.30777,3.10271 6.30777,3.10272 4.5,0.87882 4.5,0.87882 -3,0.0236 -3,0.0236 z M 417.73436,200.90102 417,200.16667 V 171.33333 142.5 h 7.94098 7.94099 l 0.46548,0.75317 0.46548,0.75316 -7.90646,-0.35905 L 418,143.28823 V 171.39411 199.5 h 7.97693 7.97692 l 0.29767,-17.75 0.29768,-17.75 0.2254,18.25 0.2254,18.25 -0.25,0.043 -0.25,0.043 -8.01564,0.52464 -8.01565,0.52464 z M 457.00083,200.25 457,199.5 h 7.97886 7.97886 l 0.30428,-19.75 0.30428,-19.75 -0.0331,20.5 -0.0331,20.5 h -8.24917 -8.24917 z M 503.25,200.79427 501,200.3609 500.998,199.68045 500.996,199 l 8.51571,0.32385 8.51571,0.32386 -0.57239,0.92614 -0.57306,0.92615 -5.69099,-0.13618 -5.69098,-0.13618 z m 58.5625,0.0226 1.3125,-0.52522 0.60417,0.60416 0.60416,0.60417 -1.91666,-0.0789 -1.91667,-0.0789 z m 44.64307,-0.57209 -0.48804,-1.2718 0.26624,-27.9865 L 606.5,143 l 7.4031,-0.2969 7.4031,-0.2969 0.80169,0.7969 0.80169,0.7969 -7.95479,-0.32615 L 607,143.34771 606.998,171.67385 606.996,200 l 7.97734,-0.32536 7.97734,-0.32536 0.3023,-15.67464 0.30231,-15.67464 0.2227,16.25 0.22201,16.25 -3.25,0.0479 -3.25,0.0479 -5.2782,0.46043 -5.2782,0.46044 z m 97.76423,-1.32255 -5.1729,-2.57775 -2.5712,-3.05578 -2.5713,-3.05578 -2.1313,-4.11647 -2.1313,-4.11647 -0.4078,-8.5 -0.4078,-8.5 0.8369,-2.19033 0.8369,-2.19034 V 171.30967 182 l 2.8025,5 2.8026,5 4.4235,3.34844 4.4236,3.34845 4.2739,1.33466 4.2739,1.33466 -2.0537,0.0669 -2.0536,0.0669 z m 51.484,1.94823 L 755,200.16667 V 171.33333 142.5 h 8.5 8.5 v 0.75 0.75 L 763.9976,143.67385 756,143.34771 V 171.42385 199.5 h 7.9746 7.9746 l 0.3157,-15.75 0.3157,-15.75 -0.04,16.5 -0.04,16.5 -8.0462,0.28715 -8.0462,0.28715 z M 329.5,199.09785 l 4,-1.26835 4.25,-2.18507 4.25,-2.18508 v -1.01951 -1.01952 l -2.06976,-4.05706 -2.06976,-4.05707 0.50042,-0.50043 0.50043,-0.50043 2.13884,4.69503 2.13883,4.69503 -0.55106,1.43605 -0.55107,1.43605 -6.26843,2.96547 -6.26844,2.96546 -2,-0.0661 -2,-0.0661 z m 61.31797,-0.1173 3.31797,-1.44116 3.02095,-2.15111 3.02095,-2.1511 2.91108,-4.01863 L 406,185.19992 v 0.9222 0.92219 l -3.19059,3.87074 -3.19058,3.87073 -4.5052,2.85711 -4.50519,2.85711 -1.55422,-0.0391 L 387.5,200.4218 Z M 557,199.5 l -1.5,-0.96937 h 1 1 l 1.5,0.96937 1.5,0.96937 h -1 -1 z m 30.86481,-0.53914 3.36481,-1.46086 0.63519,0.0354 0.63519,0.0354 -2.5,1.42913 -2.5,1.42913 -1.5,-0.004 -1.5,-0.004 z m 97.73529,-0.13473 1.1,-0.82613 0.6323,-1.5 0.6323,-1.5 -0.2323,1.91713 -0.2324,1.91714 -1.5,0.40899 -1.5,0.409 z m -135.6749,-4.01267 -4.08057,-3.68655 -2.42231,-4.78021 -2.42232,-4.78021 0.086,-1.78325 0.086,-1.78324 0.76322,2.5 0.76322,2.5 2.11267,4.13537 2.11267,4.13537 4.28815,3.59506 4.28816,3.59506 -0.74712,0.0196 -0.74712,0.0196 z M 496.29076,188.76662 492.28143,180 l -0.76494,-2.5 -0.76495,-2.5 0.48083,0.5 0.48082,0.5 4.64146,10.41861 4.64146,10.41861 -0.34801,0.34801 -0.34801,0.34801 z M 593,197.07037 v -0.5 l 2,-1.07037 2,-1.07037 v 0.5 0.5 l -2,1.07037 -2,1.07037 z M 519.08383,195 v -1 L 521,190.5 522.91617,187 v 1 1 L 521,192.5 519.08383,196 Z m 165.83697,-4.3699 -1.2178,-4.06461 -1.006,0.62177 -1.006,0.62176 0.7674,-1.24164 0.7673,-1.24164 0.7507,0.83713 0.7506,0.83713 1.141,3.41216 1.141,3.41216 -0.4352,0.43519 -0.4352,0.4352 z m -89.66567,1.6199 -0.98976,-1.25 -1.18785,-2.5 -1.18785,-2.5 1.62844,2 1.62844,2 0.96191,1.75 0.96191,1.75 h -0.41274 -0.41274 z m -21.50513,-2.41228 1.25,-0.50439 1.25,0.50439 1.25,0.50439 h -2.5 -2.5 z m 148.519,-0.0307 1.7691,-0.46099 1.2309,0.49804 1.231,0.49805 -3,-0.0371 -3,-0.0371 z m -153.4565,-0.99012 1.3125,-0.52522 0.60417,0.60416 0.60416,0.60417 -1.91666,-0.0789 -1.91667,-0.0789 z M 581,188.7872 l 1.5,-0.55492 3.75418,-1.7774 3.75418,-1.77741 -0.57256,0.92642 -0.57256,0.92642 -3.55375,1.48485 -3.55374,1.48485 -1.12787,-0.0789 -1.12788,-0.0789 z m 132.1215,-0.9971 -3.3785,-1.66437 -1.8678,-3.06286 -1.8677,-3.06286 v -1 -1 l 1.8531,3 1.853,3 1.8932,1.6648 1.8932,1.66481 3.5,0.995 3.5,0.99501 -2,0.0674 -2,0.0674 z m 14.691,1.0268 1.3125,-0.52522 0.6042,0.60416 0.6041,0.60417 -1.9166,-0.0789 -1.9167,-0.0789 z m -355.60596,-1.16808 -1.29346,-0.82056 5.29346,0.39154 5.29346,0.39155 3.30655,-2.07537 3.30656,-2.07536 1.4043,-3.2303 1.40431,-3.23031 0.0391,1.61514 0.0391,1.61514 -2.0883,2.65484 -2.08829,2.65484 -2.86205,1.48002 -2.86204,1.48002 -3.79966,-0.0153 -3.79966,-0.0153 z m 192.30054,-0.13736 -0.61096,-0.98854 1.55194,0.59553 1.55194,0.59553 v 0.39301 0.39301 h -0.94098 -0.94099 z m 106.5655,-1.64631 -2.07258,-2.63486 0.115,-3.11514 0.115,-3.11514 0.71906,3.6976 0.71907,3.69759 1.24382,1.49871 1.24382,1.49872 4.17213,0.37898 4.1721,0.37899 -4.1774,0.1747 -4.17744,0.1747 z m 60.01072,2.26204 0.4167,-0.37283 3.25,-1.65285 3.25,-1.65286 v 0.5 0.5 l -2.9503,1.52568 -2.9504,1.52568 h -0.7163 -0.7163 z M 309.75,185.79427 312,185.3609 l 2.25,0.43337 2.25,0.43337 h -4.5 -4.5 z m 8.5,0.0164 1.75,-0.45732 1.75,0.45732 1.75,0.45733 H 320 316.5 Z M 366.45225,183.85398 364,181.20795 v -1.07648 -1.07648 l 1.70411,2.4725 1.70411,2.47251 1.54589,1.2182 1.54589,1.21819 -0.79775,0.0318 -0.79775,0.0318 z M 523.08383,186 v -1 L 525,181.5 526.91617,178 v 1 1 L 525,183.5 523.08383,187 Z M 560.87244,184.75 559.5,183 l 1.75,1.37244 1.75,1.37245 v 0.37755 0.37756 h -0.37756 -0.37755 z m -236.05994,0.0669 1.3125,-0.52522 0.60417,0.60416 0.60416,0.60417 -1.91666,-0.0789 -1.91667,-0.0789 z M 296.81616,179.50332 292,174.50663 v -1.15335 -1.15336 l 3.03024,4.18313 3.03025,4.18313 3.21975,1.96317 3.21976,1.96317 -1.43384,0.004 -1.43384,0.004 z m 31.26717,4.62386 0.41667,-0.37283 3.25,-1.65285 3.25,-1.65286 v 0.5 0.5 l -2.95034,1.52568 -2.95034,1.52568 h -0.71633 -0.71632 z M 406.6103,182 l 0.67105,-3 0.35933,-0.41667 0.35932,-0.41666 -0.0153,1.91666 -0.0153,1.91667 -1.01506,1.5 -1.01506,1.5 z m 246.54759,0.5 V 180 l 0.50439,1.25 0.50439,1.25 -0.50439,1.25 -0.50439,1.25 z m -94.69901,-1.06653 -0.65915,-1.06653 0.4766,-0.4766 0.47659,-0.4766 0.59216,1.54313 0.59215,1.54313 h -0.4096 -0.4096 z M 137,181.12244 v -0.37755 l 1.75,-1.37245 1.75,-1.37244 -1.37244,1.75 -1.37245,1.75 H 137.37756 137 Z m 209.07895,-1.20577 0.0789,-1.91667 0.52522,1.3125 0.52522,1.3125 -0.60416,0.60417 L 346,181.83333 Z m 162.66407,-1.29137 -0.60751,-2.32313 0.59023,0.59024 0.59024,0.59024 1.59201,-1.24133 L 512.5,175 l -1.11573,1.5 -1.11572,1.5 -0.45901,1.47421 -0.45901,1.47421 z m -313.66407,-0.70863 0.0789,-1.91667 0.52522,1.3125 0.52522,1.3125 -0.60416,0.60417 L 195,179.83333 Z M 345.30987,172 l 0.0102,-6 0.40466,3.26791 0.40466,3.26791 -0.41486,2.73209 L 345.29966,178 Z m 181.761,5 v -1 l 1.42913,-2.5 1.42913,-2.5 v 1 1 l -1.42913,2.5 -1.42913,2.5 z m 69.13309,-0.12187 1.70395,-0.50704 0.3804,-6.18555 0.38041,-6.18554 -0.0844,6.48996 -0.0844,6.48995 -2,0.20263 -2,0.20262 z m 120.54604,-0.0839 2.25,-0.43337 2.25,0.43337 2.25,0.43337 H 719 714.5 Z M 391.27236,172.5 V 168 l 0.43337,2.25 0.43337,2.25 -0.43337,2.25 -0.43337,2.25 z m 17.03751,-1.5 0.0102,-6 0.40466,3.26791 0.40466,3.26791 -0.41486,2.73209 L 408.29966,177 Z m 260.76908,3.91667 0.0789,-1.91667 0.52522,1.3125 0.52522,1.3125 -0.60416,0.60417 L 669,176.83333 Z M 747.3201,170.5 V 164 l 0.4033,3.25 0.4033,3.25 -0.4033,3.25 -0.4033,3.25 z m -552.36895,1.27606 -0.49903,-4.22394 0.84678,0.84678 0.84678,0.84678 -0.34775,3.37716 L 195.45018,176 Z m 311.67239,2.18528 -0.62354,-1.62491 0.0304,-0.66822 0.0304,-0.66821 1.06125,1.825 1.06126,1.82501 -0.46813,0.46812 -0.46812,0.46813 z m -17.4611,-2.00417 -1.16244,-2.55128 0.04,-0.70294 0.04,-0.70295 1.53822,2.83841 1.53822,2.83841 -0.41582,0.41581 -0.41582,0.41582 z M 540.232,171.5 V 168 l 0.45733,1.75 0.45732,1.75 -0.45732,1.75 -0.45733,1.75 z m -268.15305,0.41667 0.0789,-1.91667 0.52522,1.3125 0.52522,1.3125 -0.60416,0.60417 L 272,173.83333 Z m 90.116,-0.91667 0.0371,-3 0.46099,1.76903 0.46099,1.76903 -0.49804,1.23097 L 362.15794,174 Z M 456.232,167.5 V 164 l 0.45733,1.75 0.45732,1.75 -0.45732,1.75 -0.45733,1.75 z m 48.39154,1.46134 -0.62354,-1.62491 0.0304,-0.66822 0.0304,-0.66821 1.06125,1.825 1.06126,1.82501 -0.46813,0.46812 -0.46812,0.46813 z M 271.25218,166 l 0.0202,-4 0.4349,2.26166 0.4349,2.26166 -0.45508,1.73834 L 271.232,170 Z m 18.82677,0.91667 0.0789,-1.91667 0.52522,1.3125 0.52522,1.3125 -0.60416,0.60417 L 290,168.83333 Z M 531.07087,168 v -1 l 1.42913,-2.5 1.42913,-2.5 v 1 1 L 532.5,166.5 531.07087,169 Z M 486.16244,164.95717 485,162.40589 l 0.04,-0.70294 0.04,-0.70295 1.53822,2.83841 1.53822,2.83841 -0.41582,0.41581 -0.41582,0.41582 z m 71.33825,-0.45717 0.49391,-3.5 3.48801,-3.25 3.48802,-3.25 2.26468,0.0902 2.26469,0.0902 -3.0551,0.8879 -3.0551,0.8879 -2.1134,2.27191 -2.1134,2.27191 -1.07811,3.5 -1.07811,3.5 z m 66.5627,0.80576 -0.0634,-1.69423 2.25,-2.35478 2.25,-2.35477 -1.19735,1.56957 -1.19735,1.56958 -0.98926,2.47943 L 624.12676,167 Z m -277.98444,-1.38909 0.0789,-1.91667 0.52522,1.3125 0.52522,1.3125 -0.60416,0.60417 L 346,165.83333 Z m 155.61336,-3.10898 -1.71258,-4.62076 0.36576,-0.36576 0.36577,-0.36576 1.75028,4.58305 1.75028,4.58305 -0.40347,0.40347 -0.40347,0.40347 z m 13.8809,2.69231 0.66872,-2.5 0.92678,-1.5 0.92679,-1.5 -0.66871,2.5 -0.66872,2.5 -0.92678,1.5 -0.92679,1.5 z m 25.46029,1 -0.014,-1.5 2.36777,-5 2.36777,-5 3.87246,-3.49868 3.87246,-3.49868 -3.79653,4.08849 -3.79653,4.08849 -2.42973,5.91019 L 541.04743,166 Z m 231.9969,0.68426 -0.03,-0.81574 1.0229,-1.91134 1.0229,-1.91134 2.2271,-1.09004 2.2271,-1.09003 -2.1197,1.81712 -2.1198,1.81711 -1.0998,2 -1.0999,2 z m -365.95145,-2.26759 0.0789,-1.91667 0.52522,1.3125 0.52522,1.3125 -0.60416,0.60417 L 407,164.83333 Z M 580.92632,161.24035 579.5,158 l -3.5,-1.74845 -3.5,-1.74844 1.61514,-0.002 1.61514,-0.002 2.70954,2.13132 2.70954,2.13133 0.9533,2.50736 0.9533,2.50737 -0.35166,0.35166 -0.35166,0.35165 z M 365.11287,161.5 l 1.55555,-2.5 3.41579,-1.74845 3.41579,-1.74844 4,0.13463 4,0.13462 -2.5,0.38351 -2.5,0.38352 -3.4211,0.55771 -3.42111,0.55772 -3.05023,3.17259 L 363.55732,164 Z M 389,162.70272 v -1.13062 l -3.73213,-2.53605 -3.73214,-2.53605 h 1.21636 1.21636 l 3.26508,2.91736 3.26509,2.91735 -0.74931,0.74931 L 389,163.83333 Z m 46.04004,-0.38014 -0.04,-1.67742 2.63486,-2.07258 2.63486,-2.07258 3.11514,0.10709 3.11514,0.10709 -4.24877,0.95152 -4.24877,0.95151 -1.46119,2.6914 L 435.08012,164 Z m 19.11973,-0.93835 -1.26452,-2.02482 -3.19762,-1.39056 -3.19763,-1.39057 1.73422,-0.0391 1.73423,-0.0391 3.26508,2.91736 3.26509,2.91735 -0.53716,0.53717 -0.53717,0.53716 z m 291.91913,0.53244 0.079,-1.91667 0.5252,1.3125 0.5252,1.3125 -0.6041,0.60417 -0.6042,0.60416 z m -39.0471,-0.0318 0.032,-0.88486 1.2182,-1.54589 1.2182,-1.54589 2.4725,-1.70411 2.4725,-1.70411 1.5275,0.0391 1.5275,0.0391 -3.0848,1.34313 -3.0848,1.34313 -2.1652,2.75259 -2.1652,2.75259 z M 347.03063,161 v -1 L 348,158.5 348.96937,157 v 1 1 L 348,160.5 347.03063,162 Z m 380.63137,-2.5 -2.8315,-3 -2.1653,-0.0789 -2.1652,-0.0789 1.3486,-0.53726 1.3486,-0.53726 2.3948,1.28165 2.3948,1.28165 1.5296,2.33455 1.5297,2.33456 h -0.2763 -0.2763 z m -456.37599,-2.5 0.0136,-5 0.41792,2.76375 0.41792,2.76375 -0.43157,2.23625 L 271.27231,161 Z m 211.87643,1.95717 -1.16244,-2.55128 0.04,-0.70294 0.04,-0.70295 1.53822,2.83841 1.53822,2.83841 -0.41582,0.41581 -0.41582,0.41582 z M 669.116,157.75 669,155.5 h 7 7 v -5.95619 -5.95619 l -6.75,-0.35941 -6.75,-0.35941 7,0.0656 7,0.0656 0.2957,6.75 0.2957,6.75 h -6.9724 -6.97235 l -0.45732,1.75 L 669.232,160 Z M 691,158.84582 v -1.04574 l 2.9316,-4.047 2.9317,-4.047 3.3183,-2.46494 3.3184,-2.46493 3.3992,-1.13811 3.3992,-1.1381 1.1008,0.0237 1.1008,0.0237 -5.837,2.39997 -5.8369,2.39998 -2.0644,1.82629 -2.0643,1.82629 -2.8487,4.44578 -2.8487,4.44578 z m 54,-0.0669 v -1.05446 l -3.5543,-5.36221 -3.5543,-5.36221 2.607,3 2.6069,3 1.5211,2.84293 1.5211,2.84293 -0.5738,0.57374 -0.5737,0.57373 z m -341.06451,-2.89942 -1.40247,-2.62054 -4.51651,-4.01783 -4.51651,-4.01782 2.14787,1.11889 2.14787,1.11889 4.10213,4.66027 4.10213,4.66022 v 0.85921 0.85921 h -0.33102 -0.33102 z m 68.14346,1.03721 0.0789,-1.91667 0.52522,1.3125 0.52522,1.3125 -0.60416,0.60417 L 472,158.83333 Z m 168.57023,0.90946 1.14919,-0.82613 0.50945,-2.5 0.50944,-2.5 -0.15863,2.92288 -0.15863,2.92288 -1.5,0.40325 -1.5,0.40325 z M 518.57892,155.25 l 0.71369,-2.25 1.69648,-5 1.69647,-5 8.81597,-0.29125 8.81597,-0.29125 0.94488,0.94488 0.94487,0.94487 -1.15137,1.84637 -1.15138,1.84638 0.61514,-2.25 0.61514,-2.25 h -8.87056 -8.87055 l -2.2545,7 -2.25451,7 h -0.50972 -0.50972 z m 115.67108,1.56067 1.75,-0.45732 1.75,0.45732 1.75,0.45733 h -3.5 -3.5 z m 150,0 1.75,-0.45732 1.75,0.45732 1.75,0.45733 H 786 782.5 Z M 791.2724,153.5 V 149 l 0.4333,2.25 0.4334,2.25 -0.4334,2.25 -0.4333,2.25 z m -501.23975,1.71788 -0.0326,-1.78212 1.47339,-3.52633 1.4734,-3.52632 2.10554,-2.69156 2.10555,-2.69155 4.07154,-2.75 4.07154,-2.75 1.09952,0.0442 1.09952,0.0442 -3.5,1.86997 -3.5,1.86997 -3.38085,3.51845 -3.38086,3.51845 -1.8365,5.31738 -1.8365,5.31739 z m 59.75844,-0.30413 1.104,-2.08625 4.10473,-3.70838 4.10473,-3.70837 2.49183,-0.94739 2.49183,-0.94739 2.70589,-0.57297 2.7059,-0.57297 -6,2.52484 -6,2.52484 -4.40646,4.79015 L 348.68708,157 Z M 536.07087,156 v -1 l 1.42913,-2.5 1.42913,-2.5 v 1 1 l -1.42913,2.5 -1.42913,2.5 z m 56.7209,-3.56514 -2.70823,-3.84422 -3.79177,-2.00113 -3.79177,-2.00112 1,-0.0405 1,-0.0404 3.13417,1.91112 3.13417,1.91112 2.75528,3.61236 2.75528,3.61236 -0.38945,0.36232 -0.38945,0.36233 z m 53.22354,2.31514 0.0153,-1.75 0.74342,1.16865 0.74343,1.16865 3.49126,0.42131 3.49126,0.42132 -4.25,0.16003 L 646,156.5 Z M 469.5,151.17268 l -2,-3.09806 -3.39788,-2.28731 -3.39789,-2.28731 h 1.11309 1.11309 l 3.57301,3.13714 3.57301,3.13715 1.0428,1.9485 1.04281,1.9485 -0.33102,0.29972 -0.33102,0.29972 z m 27.78607,-1.89895 -1.9998,-5.27373 -8.89313,-0.56103 -8.89314,-0.56103 8.62756,-0.18897 8.62755,-0.18897 0.96416,1.25 0.96415,1.25 1.70014,4.37482 1.70013,4.37482 -0.39891,0.39891 -0.3989,0.39891 z m -16.66253,2.68761 -0.62354,-1.62491 0.0304,-0.66822 0.0304,-0.66821 1.06125,1.825 1.06126,1.82501 -0.46813,0.46812 -0.46812,0.46813 z M 646.28601,148 l 0.0136,-5 0.41792,2.76375 0.41792,2.76375 -0.43157,2.23625 L 646.27231,153 Z m 125.35659,3.80929 -0.7068,-0.70683 4.0228,-3.67724 4.0229,-3.67724 4.0013,-1.01564 4.0013,-1.01565 -0.5511,0.89166 -0.551,0.89165 h -1.7066 -1.7066 l -3.2535,1.75 -3.2535,1.75 -1.8062,2.75806 -1.8061,2.75806 z M 623,150.8261 v -1.11892 l 3.5348,-3.10359 3.53479,-3.10359 1.21521,0.004 1.2152,0.004 -3.13329,1.91058 -3.13328,1.91059 -1.61672,2.30818 L 623,151.94501 Z m -350.92105,-1.90943 0.0789,-1.91667 0.52522,1.3125 0.52522,1.3125 -0.60416,0.60417 L 272,150.83333 Z M 478.62354,146.96134 478,145.33643 l 0.0304,-0.66822 0.0304,-0.66821 1.06125,1.825 1.06126,1.82501 -0.46813,0.46812 -0.46812,0.46813 z m -41.39735,-1.04006 1.72619,-1.80223 0.47833,0.47833 0.47833,0.47833 -2.20452,1.3239 -2.20452,1.3239 z M 733,145.5 l -3.5,-1.91617 0.7997,-0.0419 0.7996,-0.0419 2.9504,1.52568 2.9503,1.52568 v 0.47429 0.47432 l -0.25,-0.0419 -0.25,-0.0419 z m 59.0789,0.41667 0.079,-1.91667 0.5252,1.3125 0.5252,1.3125 -0.6041,0.60417 -0.6042,0.60416 z m -519.05225,0.30009 -0.0267,-0.78325 2.39119,-4.71879 2.3912,-4.7188 5.60616,-5.30207 5.60616,-5.30208 5.46733,-2.50302 5.46733,-2.50303 3.78532,-0.46348 3.78531,-0.46347 -5.24933,1.49995 -5.24932,1.49994 -3.80291,1.9401 -3.80291,1.9401 -5.01108,4.50539 -5.01107,4.50539 -3.16004,5.82518 L 273.05325,147 Z m 281.54761,-0.83692 0.4536,-0.73393 3.49478,-1.15338 3.49479,-1.15339 0.91639,0.33043 0.91639,0.33043 -4.86477,1.55689 -4.86477,1.55688 z M 386.5,143.5 l -2,-0.85943 h 1.5 1.5 l 2,0.85943 2,0.85943 h -1.5 -1.5 z m 55.5,0 1.5,-0.96937 h 1 1 L 444,143.5 l -1.5,0.96937 h -1 -1 z m 136.5,0 -2,-0.85943 1.5,-0.055 1.5,-0.055 1.5,0.96937 1.5,0.96937 -1,-0.055 -1,-0.055 z m 55.25,-0.66228 1.25,-0.50439 1.25,0.50439 1.25,0.50439 H 635 632.5 Z M 640,142.5 l -2.5,-0.80064 2.19098,-0.0997 2.19099,-0.0997 0.61803,1 0.61803,1 -0.30901,-0.0997 -0.30902,-0.0997 z m 9.26903,0.30701 1.76903,-0.46099 1.23097,0.49804 1.23097,0.49805 -3,-0.0371 -3,-0.0371 z m 77.54347,0.01 1.3125,-0.52522 0.6042,0.60416 0.6041,0.60417 -1.9166,-0.079 -1.9167,-0.0789 z m -354.0848,-1.03862 3.22769,-0.40166 3.77231,0.39359 3.7723,0.39359 -7,0.008 -7,0.008 z m 76.53605,0.004 2.76375,-0.41792 2.23625,0.43157 2.23625,0.43157 -5,-0.0136 -5,-0.0137 z m 118.50416,-0.007 3.26791,-0.40466 2.73209,0.41486 2.73209,0.41487 -6,-0.0102 -6,-0.0102 z m 147.99999,0 3.2679,-0.40466 2.7321,0.41486 2.7321,0.41487 -6,-0.0102 -6,-0.0102 z M 332.5,139.37082 l -3,-1.86029 1.69098,-0.005 1.69099,-0.005 0.61803,1 0.61803,1 h 1.23267 1.23266 l 2.72838,-5.56304 2.72837,-5.56305 -0.66676,-1.18695 -0.66676,-1.18696 1.22336,1.12666 1.22337,1.12666 -3.05428,6.05049 -3.05428,6.0505 -0.77238,0.4384 -0.77238,0.4384 z m -11.5,-3.48959 -6.5,-1.3317 5.88216,0.4995 5.88215,0.49951 1.61785,0.94532 1.61784,0.94532 -1,-0.11313 -1,-0.11313 z m -11.73097,-1.07422 1.76903,-0.46099 1.23097,0.49804 1.23097,0.49805 -3,-0.0371 -3,-0.0371 z m 347.54347,-2.99012 1.3125,-0.52522 0.60417,0.60416 0.60416,0.60417 -1.91666,-0.079 -1.91667,-0.0789 z m 4.45653,-1.00988 1.76903,-0.46099 1.23097,0.49804 1.23097,0.49805 -3,-0.0371 -3,-0.0371 z M 332,122.5 l -1.5,-0.96937 h 1 1 l 1.5,0.96937 1.5,0.96937 h -1 -1 z m -4.1875,-1.68311 1.3125,-0.52522 0.60417,0.60416 0.60416,0.60417 -1.91666,-0.079 -1.91667,-0.0789 z m -5.54347,-1.00988 1.76903,-0.46099 1.23097,0.49804 1.23097,0.49805 -3,-0.0371 -3,-0.0371 z m -10.01903,-1.02326 2.75,-0.41659 2.75,0.41659 2.75,0.41659 H 315 309.5 Z M 0.07895,102.91667 0.15785,101 0.68307,102.3125 1.20829,103.625 0.60413,104.22917 0,104.83333 Z M 373,95.62586 370.5,94.80165 366.43179,92.72324 362.36357,90.64483 358.68179,86.56954 355,82.49424 v -0.63596 -0.63595 l 4.25,4.51785 4.25,4.51786 4.5,2.35426 4.5,2.35426 10.5,0.0167 10.5,0.0167 3.5,-0.73286 3.5,-0.73287 -1.99216,1.16808 -1.99216,1.16807 -10.50784,0.28983 L 375.5,96.45003 Z M 427.73447,95.41195 423.96893,94.5248 419.98447,92.49208 416,90.45935 416.04192,88.72968 416.08383,87 418,83.5 l 1.91617,-3.5 0.006,1 0.006,1 -1.42913,2.5 -1.42913,2.5 -0.0354,1.62686 -0.0354,1.62685 5.25,2.34775 5.25,2.34775 11.70647,0.0254 11.70648,0.0254 -1.70648,0.67971 -1.70647,0.67972 -8,-0.0302 -8,-0.0302 z M 488,95.85319 l -1.5,-0.48892 -3.63633,-1.53275 -3.63633,-1.53275 -1.97307,-2.66873 -1.97308,-2.66872 -0.67713,-2.48066 L 473.92693,82 l 1.6617,3 1.66169,3 1.62248,1.85238 1.62248,1.85238 2.93049,1.51541 2.93049,1.51542 7.07187,0.74642 7.07187,0.74643 -5.5,0.0568 -5.5,0.0568 z m 185.75,-0.0854 4.25,-0.38279 4.25,0.38279 4.25,0.3828 H 678 669.5 Z M 279.45692,94.24834 278.97661,92.99667 279.23831,52.99834 279.5,13 301.75059,12.9706 324.00118,12.9412 302.00059,13.2397 280,13.53826 v 40.44335 40.44334 l 9.25,0.32998 9.25,0.32999 -9.28138,0.20754 -9.28139,0.20754 z m 48.50808,-0.29051 -1.27989,-1.54218 -7.34837,-12.11867 -7.34838,-12.11867 0.35652,-0.35653 0.35652,-0.35652 7.98913,13.26737 7.98913,13.26737 10.72082,0.28445 10.72083,0.28444 -4.09792,-6.03444 L 341.92548,82.5 h 0.5 0.5 l 4.03726,5.94513 L 351,94.39026 V 94.94513 95.5 h -10.87756 -10.87755 z m 173.8475,0.85906 1.3125,-0.52522 0.60417,0.60416 L 504.33333,95.5 502.41667,95.421 500.5,95.3421 Z M 522.49672,94.77549 530,94.41586 v -28.919 -28.919 l -8.50274,-0.35096 -8.50274,-0.35096 8.75274,0.062 8.75274,0.062 v 29.5 29.5 l -7.75328,0.0676 -7.75329,0.0676 z m 19.95592,-0.53833 -0.48459,-1.26282 0.26597,-28.48718 0.26598,-28.48717 7.5,-0.063 7.5,-0.063 -7.25,0.35507 -7.25,0.35507 v 28.95792 28.95794 h 7.97693 7.97692 l 0.29767,-17.75 0.29768,-17.75 0.2254,18.25 0.2254,18.25 h -8.53138 -8.53139 z m 39.00624,0.1963 -0.65915,-1.06653 0.60013,-0.60014 L 582,92.16666 v 1.16666 1.16667 h 7.93664 7.93664 l 0.40332,-3.25 0.40333,-3.25 0.16003,3.75 0.16004,3.75 h -8.44098 -8.44099 z m 39.98459,-0.22019 -0.49376,-1.28672 0.30102,-16.96328 0.30102,-16.96328 0.22413,17.75 0.22412,17.75 h 7.97929 7.9793 l 0.2926,-20.25 0.29261,-20.25 0.2281,20.75 0.2281,20.75 h -8.53138 -8.53139 z m 40.6008,-0.29065 -3.45573,-1.49909 -3.19948,-2.44036 -3.19948,-2.44036 -1.98077,-3.27141 -1.98077,-3.27141 -0.63872,-2.5 -0.63872,-2.5 2.05333,4.07501 2.05333,4.075 3.89412,3.80251 3.89412,3.80251 5.32725,1.83984 5.32725,1.83984 -2,-0.007 -2,-0.006 z m 25.76823,0.89426 1.3125,-0.52522 0.6042,0.60416 0.6041,0.60417 -1.9166,-0.079 -1.9167,-0.0789 z M 453,93.49999 l 1.5,-0.96937 h 1 1 l -1.5,0.96937 -1.5,0.96937 h -1 -1 z m 54.64089,-0.92269 3.14089,-1.91521 0.66813,-1.08105 0.66812,-1.08105 h 1.07849 1.07849 l -3.77501,3 -3.77501,3 -1.11249,-0.004 -1.1125,-0.004 z M 404.5,91.33028 l 4,-2.08131 0.37149,-0.32932 0.3715,-0.32932 -2.66365,-4.54517 -2.66365,-4.54517 -1.20784,0.0354 -1.20785,0.0354 -2.5,1.42913 -2.5,1.42913 -2,-0.008 -2,-0.008 4,-1.52183 4,-1.52183 1.70545,-0.53926 1.70544,-0.53925 3.04456,4.80076 L 410,87.8924 v 0.7839 0.78389 l -3.96016,2.02033 -3.96016,2.02032 -0.78984,-0.0442 -0.78984,-0.0442 z m 289.5833,1.80516 0.4167,-0.36454 2.5,-1.19062 2.5,-1.19062 -1.9411,1.55516 -1.9412,1.55517 h -0.9755 -0.9755 z m -234.46715,-3.58915 2.11616,-2.5463 1.10343,-2 1.10344,-2 0.0304,1.26469 0.0304,1.26468 -3.25,3.28161 -3.25,3.28161 z m -439.5372,0.37037 0.0789,-1.91667 0.52522,1.3125 0.52522,1.3125 -0.60416,0.60417 L 20,91.83332 Z m 680.54245,-0.87245 0.5985,-1.55966 -1.6693,-2.74228 -1.6693,-2.74228 2.0593,2.36078 2.0594,2.36079 v 1.3302 1.3302 l -0.9885,0.61095 -0.9886,0.61096 z M 382.75,82.77659 386,82.37327 l 3.25,0.40332 3.25,0.40333 h -6.5 -6.5 z m 47.75,-0.28384 -2,-0.86668 5,0.57784 5,0.57784 0.41667,0.35912 0.41666,0.35912 -3.41666,-0.0703 -3.41667,-0.0703 z m 12.08729,0.0645 3.08729,-0.73807 1.41271,-0.73373 1.41271,-0.73373 -1.94113,1.57415 -1.94113,1.57412 -2.55887,-0.10236 L 439.5,83.29527 Z m 234.18061,0.21805 3.2679,-0.40466 2.7321,0.41486 2.7321,0.41487 -6,-0.0102 -6,-0.0102 z M 464.15789,80.49999 v -2.5 l 0.50439,1.25 0.50439,1.25 -0.50439,1.25 -0.50439,1.25 z m 37.15481,0.95631 4.81269,-0.80845 2.41006,-1.57913 2.41006,-1.57913 0.93706,-3.2448 0.93705,-3.2448 0.0902,2.02749 0.0902,2.0275 -1.5607,2.22822 -1.56071,2.22821 -2.88963,1.49429 -2.88966,1.49429 -3.79966,-0.11762 L 496.5,82.26475 Z M 668.86078,80.44064 666.5,78.38129 l 3,1.75669 3,1.75669 0.41667,0.30266 0.41666,0.30266 h -1.05588 -1.05588 z M 687,81.78384 l 1.5,-0.55826 2.75,-1.38848 2.75,-1.38847 v 0.82479 0.82479 l -3.321,1.20089 -3.321,1.20089 -0.929,-0.079 -0.929,-0.0789 z m -350.2117,-6.53385 -4.36632,-6.25 -0.77001,-1.25 -0.77,-1.25 h 0.43412 0.43411 l 5.18475,7.5 5.18475,7.5 h -0.48254 -0.48253 z m 36.97396,5.17676 -1.73773,-1.01241 -1.06743,-2.20718 -1.06743,-2.20717 1.47444,1.83073 1.47443,1.83073 1.83073,1.38746 1.83073,1.38747 -0.5,0.001 -0.5,10e-4 z m 50.25029,-0.37446 -2.48745,-1.37683 -1.01255,0.55897 -1.01255,0.55897 1.18767,-1.28437 1.18767,-1.28438 3.31233,2.12083 3.31233,2.12082 -1,-0.0186 -1,-0.0186 z m 68.4819,-0.55843 -1.81552,-2.00613 0.41053,-0.29442 0.41054,-0.29443 2.21427,2.30056 2.21426,2.30055 h -0.80928 -0.80927 z M 352.56803,75.41712 351,70.13699 l 0.13987,-5.5685 0.13987,-5.5685 0.75291,7.5 0.7529,7.5 1.13521,2.88869 1.1352,2.88869 -0.45995,0.45994 -0.45995,0.45995 z M 473.22987,58.24999 473,35.49999 h 8.5 8.5 l -0.22478,17.75 -0.22478,17.75 -0.29883,-17.25 -0.29884,-17.25 h -7.45725 -7.45726 l -0.28926,22.25 -0.28926,22.25 z m -26.7909,18.15125 -0.67907,-1.09875 -3.12995,-1.36211 -3.12995,-1.36211 1.29966,-0.0391 1.29966,-0.0391 2.95034,1.52568 2.95034,1.5256 v 0.97432 0.97432 h -0.44098 -0.44099 z m 17.71892,-1.90125 v -2.5 l 0.50439,1.25 0.50439,1.25 -0.50439,1.25 -0.50439,1.25 z m 182,-1 v -2.5 l 0.50439,1.25 0.50439,1.25 -0.50439,1.25 -0.50439,1.25 z m 16.92106,-0.58333 0.0789,-1.91667 0.52522,1.3125 0.52522,1.3125 -0.60416,0.60417 L 663,74.83332 Z m -232.86331,-2.30728 -5.28436,-1.82532 -2.56065,-2.39204 -2.56066,-2.39203 -1.40498,-2.70034 L 417,58.59931 l 0.0153,-5.29966 0.0153,-5.29966 0.78074,-1.22903 0.78075,-1.22903 -0.4026,6.32266 -0.4026,6.32267 1.63504,3.16181 1.63503,3.16181 3.89154,2.45662 3.89154,2.45662 5.32997,1.44707 5.32996,1.44707 -2,0.0582 -2,0.0582 z m -50.91129,-0.85615 10.80435,-0.32201 10.19565,0.32349 10.19565,0.32349 -21,-10e-4 -21,-0.001 z m 265.99531,-4.25324 v -5.5 l 0.41659,2.75 0.41659,2.75 -0.41659,2.75 -0.41659,2.75 z m 28.00469,4.25324 10.80435,-0.32201 10.1957,0.32349 10.1956,0.32349 -21,-10e-4 -21,-0.001 z m -213.2556,-2.70135 -2.29988,-2.44811 -4.12443,-2.07659 -4.12444,-2.07659 2.37347,0.63128 2.37348,0.63127 3.40236,2.00745 3.40237,2.00744 1.00934,1.88598 1.00935,1.88598 h -0.36087 -0.36087 z m -128.68831,-2.78767 1.86044,-1.26422 3.96318,-2.8096 3.96318,-2.8096 2.41661,-5.1904 2.41661,-5.1904 0.01,1.28984 0.01,1.28984 -1.95615,3.83437 -1.95615,3.83437 -3.16373,2.6621 -3.16373,2.6621 -3.13012,1.47791 -3.13012,1.47791 z M 215.27236,60.49999 v -4.5 l 0.43337,2.25 0.43337,2.25 -0.43337,2.25 -0.43337,2.25 z m 160.01923,0.2575 6.79159,-0.35078 6.20841,0.35396 6.20841,0.35396 -13,-0.003 -13,-0.003 z m 205.8663,-1.2575 v -2.5 l 0.50439,1.25 0.50439,1.25 -0.50439,1.25 -0.50439,1.25 z m 86.59211,1.26276 5.25,-0.36728 5.25,0.36728 5.25,0.36728 H 673 662.5 Z m -220.9375,-0.94587 1.3125,-0.52522 0.60417,0.60416 0.60416,0.60417 -1.91666,-0.079 -1.91667,-0.0789 z m -52.73355,-1.42734 -0.0789,-1.61046 -2.62124,-3.86261 -2.62124,-3.86261 1.68718,1.40023 1.68717,1.40023 1.4948,2.89063 1.4948,2.89062 -0.48179,1.18221 -0.48179,1.18221 z m 15.07894,-0.88955 v -2.5 l 0.50439,1.25 0.50439,1.25 -0.50439,1.25 -0.50439,1.25 z m 33.65461,1.31689 1.3125,-0.52522 0.60417,0.60416 0.60416,0.60417 -1.91666,-0.079 L 441.5,59.34209 Z M 599.03914,58.32672 599,56.65344 l 2.58889,-3.07672 2.5889,-3.07673 h 1.13361 1.13361 l -2.32472,1.6283 -2.32473,1.6283 -1.35864,3.1217 -1.35864,3.1217 z m 47.03981,-0.41006 0.0789,-1.91667 0.52522,1.3125 0.52522,1.3125 -0.60416,0.60417 L 646,59.83332 Z m 57.07895,-0.41667 v -2.5 l 0.5044,1.25 0.5044,1.25 -0.5044,1.25 -0.5044,1.25 z m -351.08383,0 -0.0302,-1.5 1.84649,-4.06538 1.84649,-4.06537 3.28687,-3.74354 3.28687,-3.74354 3.94159,-2.01085 3.94158,-2.01084 0.41329,0.41329 0.41329,0.41329 -4.09501,1.84659 -4.095,1.84659 -3.41033,3.9842 -3.41033,3.9842 -1.95276,5.07568 -1.95275,5.07568 z M 435.75,56.92802 433,55.43612 v -0.49375 -0.49374 l 2.75,1.38847 2.75,1.38848 1.5,0.55826 1.5,0.55826 -1.5,0.0389 -1.5,0.0389 z m 124.28914,0.75623 -0.0391,-1.31574 1.02964,-1.92391 1.02965,-1.92391 2.92069,-1.51035 2.9207,-1.51035 h 3.90364 3.90363 l 2.64603,2.45225 L 581,54.40449 v 0.97083 0.97082 l -2.92308,-2.92307 -2.92307,-2.92308 h -3.52987 -3.52987 l -2.69026,1.22576 -2.69025,1.22576 -1.31766,3.02424 -1.31766,3.02424 z M 620,57.11077 v -1.38921 l -1.86203,-2.29951 -1.86202,-2.2995 -4.88798,-0.67767 -4.88797,-0.67766 4.32692,-0.13362 4.32693,-0.13361 2.92307,2.92308 L 621,55.34614 v 1.57693 1.57692 h -0.5 -0.5 z m -250.99626,-0.13827 -0.004,-1.0275 1.6463,-2.4725 1.64631,-2.47251 1.54482,-1.25 1.54483,-1.25 h 1.03138 1.03137 l -2.30818,1.61671 -2.30818,1.61672 -1.91059,3.13328 -1.91058,3.13329 z m 294.02806,-1.03138 0.0318,-0.94113 1.46819,-1.94113 1.4682,-1.94113 -0.0318,0.94113 -0.0318,0.94113 -1.46819,1.94113 L 663,56.88225 Z M 303.25,53.76495 308,53.39041 l 4.75,0.37454 4.75,0.37454 h -9.5 -9.5 z m 380.5286,-1.94091 -2.676,-2.67596 -4.3013,-0.69888 -4.3013,-0.69888 3.2997,-0.12516 3.2996,-0.12517 2.9207,1.51035 2.9207,1.51035 1.0648,1.98965 1.0649,1.98965 h -0.3079 -0.308 z m 17.3272,-0.9079 -1.347,-3.72518 -4.6294,-4.59111 -4.6294,-4.59111 3.5,2.60574 3.5,2.60574 2.8546,4.57621 2.8545,4.57622 -0.3781,1.13434 -0.3781,1.13434 z m -249.6058,0.246 -4,-2.07684 -6.14708,-0.0427 -6.14707,-0.0426 0.45609,-0.75 0.45609,-0.75 h 3.75949 3.75948 l 4.94887,1.46966 4.94888,1.46966 1.98263,1.49854 1.98262,1.49853 -1,-0.0987 -1,-0.0987 z m -127.43495,-1.42896 3.0966,-2.76682 0.86968,-5.48318 0.86967,-5.48319 -0.3082,5.29675 -0.3082,5.29675 -2.82939,2.95325 -2.82939,2.95325 h -0.82869 -0.82868 z M 637.116,51.33178 637,49.66356 l -0.57551,-1.83178 -0.5755,-1.83179 1.14278,1.78142 1.14278,1.78142 -0.45128,1.71858 -0.45127,1.71858 z M 648,51.78958 v -0.98951 l 2.83328,-3.90004 2.83327,-3.90004 1.91673,-1.46974 1.91672,-1.46974 -2.14498,2.46974 -2.14498,2.46974 -2.60502,3.88955 L 648,52.77908 Z M 404.77763,46.87721 402.05526,42.46514 398.52763,40.38379 395,38.30244 v -0.42691 -0.4269 l 2.75,1.43067 2.75,1.43066 2.11765,2.34502 2.11766,2.34501 1.7678,2.78121 1.76781,2.78121 -0.38546,0.36344 -0.38546,0.36344 z m 263.44856,3.04406 1.72619,-1.80223 0.47833,0.47833 0.47833,0.47833 -2.20452,1.3239 L 666.5,51.7235 Z M 382.5,48.49999 l -4,-0.71619 3.5,-0.12659 3.5,-0.12659 1.5,0.96937 1.5,0.96937 -1,-0.12659 -1,-0.12659 z m -36.16379,-9 v -7.5 l 0.39226,3.75 0.39226,3.75 -0.39226,3.75 -0.39226,3.75 z m 112.69923,6.68426 -0.0354,-0.81574 1.01691,-1.90013 1.01692,-1.90012 -2.4905,-1.63184 -2.4905,-1.63183 -4.27641,-1.33541 -4.27642,-1.3354 2,-0.0571 2,-0.0571 5.25,2.44422 5.25,2.44423 -0.0354,0.79601 -0.0354,0.796 -1.42913,2.5 -1.42913,2.5 z m 174.52524,-3.232 -1.66935,-2.54774 -3.19566,-1.94852 -3.19567,-1.94852 1.17327,-0.004 1.17328,-0.004 3.09927,2.60786 3.09926,2.60786 1.01265,1.89214 1.01264,1.89214 h -0.42018 -0.42017 z M 421,42.11805 l 2.5,-2.80809 2.84293,-1.47872 2.84293,-1.47872 0.48243,0.48243 0.48243,0.48243 -2.14107,0.67955 -2.14106,0.67954 -3.6843,3.12484 -3.68429,3.12484 z m 169.5,-2.33719 -4,-3.53665 2,1.04032 2,1.04033 2,1.95502 2,1.95502 4.5,-2.53203 4.5,-2.53202 -1,1.00453 -1,1.00454 -3.5,2.0688 -3.5,2.0688 z m -78.42105,-0.8642 0.0789,-1.91667 0.52522,1.3125 0.52522,1.3125 -0.60416,0.60417 L 512,40.83332 Z m 50.53101,0.40541 0.51686,-0.8363 3.00438,-1.55363 3.00438,-1.55362 0.74882,0.31073 0.74882,0.31074 -4.27006,2.07919 -4.27006,2.07919 z M 658,40.00949 v -0.45814 l 3.09293,-1.59942 3.09293,-1.59941 0.39451,0.39451 0.39452,0.39451 -3.48745,1.66305 L 658,40.46763 Z m 29,-2.5095 -1.5,-0.96937 h 1 1 l 1.5,0.96937 1.5,0.96937 h -1 -1 z m -314.1875,-1.68311 1.3125,-0.52522 0.60417,0.60416 0.60416,0.60417 -1.91666,-0.079 -1.91667,-0.0789 z m 16,0 1.3125,-0.52522 0.60417,0.60416 0.60416,0.60417 -1.91666,-0.079 -1.91667,-0.0789 z m 195,0 1.3125,-0.52522 0.60417,0.60416 0.60416,0.60417 -1.91666,-0.079 -1.91667,-0.0789 z m 39,0 1.3125,-0.52522 0.60417,0.60416 0.60416,0.60417 -1.91666,-0.079 -1.91667,-0.0789 z m 44,0 1.3125,-0.52522 0.60417,0.60416 0.60416,0.60417 -1.91666,-0.079 L 665.5,36.34209 Z M 325.5,32.81406 l -2,-2.40246 -4,-1.41191 -4,-1.41191 1.79966,-0.0439 1.79966,-0.0439 2.7027,1.39762 2.7027,1.39762 1.90818,2.10851 1.90817,2.10851 -0.41053,0.35214 -0.41054,0.35213 z m 52.75,1.9966 1.75,-0.45732 1.75,0.45732 1.75,0.45733 h -3.5 -3.5 z m 60.01375,-0.0283 2.76375,-0.41792 2.23625,0.43157 2.23625,0.43157 -5,-0.0136 -5,-0.0137 z m 137,0 2.76375,-0.41792 2.23625,0.43157 2.23625,0.43157 -5,-0.0136 -5,-0.0137 z m 39,0 2.76375,-0.41792 2.23625,0.43157 2.23625,0.43157 -5,-0.0136 -5,-0.0137 z m 59.49791,0.0103 2.26164,-0.4349 1.7384,0.45508 1.7383,0.45508 -4,-0.0202 -4,-0.0202 z M 344,27.64431 V 26.4553 l -4.21497,-4.72765 -4.21496,-4.72766 3.79704,3.5 3.79704,3.5 0.99895,1.83565 0.99894,1.83564 -0.58102,0.58102 L 344,28.83332 Z m -34.73097,-0.83731 1.76903,-0.46099 1.23097,0.49804 1.23097,0.49805 -3,-0.0371 -3,-0.0371 z m 16.54347,-12.99012 1.3125,-0.52522 0.60417,0.60416 0.60416,0.60417 -1.91666,-0.079 -1.91667,-0.0789 z"
     id="path7" />
  <path
     style="fill:#8662fd"
     d="m 175,137.16246 v -0.37819 l 5.86541,-3.62033 5.8654,-3.62034 0.5704,-4.25266 0.57041,-4.25266 -0.49251,-0.4925 -0.49251,-0.49251 -2.6933,1.67454 -2.6933,1.67453 -3.58333,1.98413 -3.58334,1.98412 v -1.33995 -1.33996 l 1.09141,0.41881 1.09141,0.41882 5.49193,-4.0906 5.49192,-4.0906 5.33804,-5.17356 5.33804,-5.17355 4.39737,-6.10654 4.39736,-6.10654 3.09367,-6.61101 3.09366,-6.61101 -0.73358,-1.18696 -0.73358,-1.18696 0.96159,0.5943 0.96159,0.59429 1.28114,-5.77478 1.28113,-5.77478 0.776,-7.41501 0.77601,-7.415 0.23546,4.5 0.23546,4.5 0.7426,-2.5 0.74259,-2.5 -0.29369,-2.5 -0.2937,-2.5 1.59645,3.5 1.59645,3.5 0.354,6.1671 0.354,6.1671 -1.48272,7.74946 -1.48271,7.74946 -2.92991,6.26108 -2.92992,6.26107 -4.08097,6.0095 -4.08097,6.0095 -5.60159,6.05039 -5.60159,6.05038 -6.12805,4.60654 -6.12806,4.60654 -3.77578,1.92626 L 175,137.54065 Z m 15.54677,-11.58678 -0.57126,-0.92432 1.5459,-0.32568 1.54589,-0.32568 -2.13829,-1.32382 -2.1383,-1.32383 0.61088,0.98842 0.61087,0.98841 -1.18328,0.39443 -1.18328,0.39442 0.73607,1.19099 0.73606,1.19098 h 1 1 z M 163,133.10699 v -0.39301 l 1.55194,-0.59554 1.55194,-0.59553 -0.61096,0.98854 -0.61095,0.98855 H 163.94098 163 Z m 4,-2 v -0.39301 l 1.55194,-0.59554 1.55194,-0.59553 -0.61096,0.98854 -0.61095,0.98855 H 167.94098 167 Z m 24.30284,-63.63773 0.46611,-1.53073 -1.22638,-6.46927 L 189.31618,53 l -0.74603,-2.31476 -0.74603,-2.31475 -2.16206,-0.87186 -2.16206,-0.87186 1.75,-0.0634 1.75,-0.0634 V 45.55899 44.618 l -1,-0.61803 -1,-0.61803 0.0153,-1.19099 0.0153,-1.19098 0.96937,1.5 0.96937,1.5 0.0153,-1.05 0.0153,-1.05 -1.2127,-1.2127 -1.21271,-1.21271 -0.13286,-2.48729 -0.13281,-2.4873 h 0.75195 0.75195 l -0.5639,-2.15637 -0.56391,-2.15637 1.03109,0.63724 1.03108,0.63725 0.0907,-4.51854 0.0907,-4.51853 0.60484,-0.97865 0.60484,-0.97865 0.99778,0.61666 0.99778,0.61666 -0.18536,-1.35035 -0.18537,-1.35035 0.11849,-1.29384 L 190,16.4123 l 1.25,0.16232 1.25,0.16232 4.21862,-0.11849 4.21861,-0.11848 -0.54648,-1.4241 -0.54648,-1.4241 -3.67213,-1.52437 -3.67214,-1.52437 1.5,-0.0455 1.5,-0.0455 14.46895,5.4008 14.46895,5.4008 0.38367,1.15101 0.38367,1.15102 -1.75761,1.94213 -1.75761,1.94218 h 0.59862 0.59862 l -2.89668,3.17146 -2.89668,3.17146 0.44731,0.72375 0.4473,0.72376 -1.49425,0.5734 L 215,36.4372 v 1.53139 1.53138 h -0.9054 -0.9054 l -7.3446,10.22384 -7.3446,10.22383 0.33333,1.02617 0.33334,1.02616 -0.74364,-0.74364 -0.74364,-0.74364 -1.40812,2.01037 -1.40811,2.01037 -1.08609,-0.67124 -1.08609,-0.67124 0.62248,1.00719 0.62247,1.00719 -1.5496,1.89732 -1.5496,1.89732 z M 194.54112,58.56653 193.88197,57.5 h -0.98041 -0.98041 l 1.28942,1.39914 1.28943,1.39914 0.35014,-0.33261 0.35013,-0.33261 z M 174.95549,30 l 4.38543,-5 0.46499,-0.5 0.465,-0.5 -1.05338,2 -1.05338,2 -3.79704,3.5 -3.79704,3.5 z M 187.5,8.5 l -0.61803,-1 h 1 1 l 0.61803,1 0.61803,1 h -1 -1 z"
     id="path6" />
  <path
     style="fill:#10d7fd"
     d="M 32.99966,171.09149 24.5,164.68297 20.94179,160.34149 17.38357,156 14.12968,151.22956 10.87579,146.45912 7.93718,140.17944 4.99856,133.89977 2.89857,124.44988 0.79858,115 1.36849,104.5 1.93841,94 3.35524,88.83891 4.77207,83.67782 5.6071,82.33891 6.44214,81 6.74999,79 7.05784,77 8.03515,76.66459 9.01246,76.32918 8.49704,75.49521 7.98162,74.66124 9.24081,73.30681 10.5,71.95238 10.82723,70.49451 11.15446,69.03663 15.5091,62.51832 19.86374,56 l 5.04509,-4.93971 5.04508,-4.93971 0.49656,0.49655 0.49655,0.49656 -2.46057,3.62106 -2.46057,3.62106 -1.95485,5.32209 -1.95486,5.3221 -1.67076,6.5 -1.67076,6.5 0.6098,8.5 0.60981,8.5 1.34777,5.00515 1.34777,5.00516 2.14275,4.84404 2.14275,4.84405 3.59752,4.9008 3.59752,4.9008 h -0.84462 -0.84463 l -1.24902,-2 -1.24902,-2 -1.74152,-0.0153 -1.74153,-0.0153 -1.4357,-0.90847 -1.4357,-0.90847 1.4357,-1.82621 1.4357,-1.82622 -1.5,1.16496 -1.5,1.16497 -0.78571,0.12075 -0.78572,0.12075 -1.30635,-1.30635 -1.30635,-1.30635 -1.32387,-2.47367 -1.32387,-2.47368 -1.24465,-4.50569 -1.24465,-4.50569 -0.0786,2.5 -0.0786,2.5 1.45032,4.77983 1.45032,4.77982 3.73775,7.11294 3.73774,7.11295 7.05111,7.17937 7.05111,7.17936 5.26817,3.35805 5.26817,3.35806 6.23183,2.88148 6.23183,2.88149 -2.88042,-0.61346 -2.88043,-0.61346 -2.24177,2.10603 -2.24177,2.10603 -0.69505,-1.80424 -0.69506,-1.80425 -0.99421,1.77103 -0.99421,1.77103 -0.96332,-0.59536 -0.96331,-0.59536 0.27477,1.32433 0.27478,1.32433 -1.27783,-0.25928 -1.27782,-0.25927 -0.61134,1.59312 -0.61134,1.59312 -0.84552,-1.33384 -0.84552,-1.33385 -0.0153,1.25 -0.0153,1.24997 h -1.55902 -1.55901 l 0.61803,1 0.61803,1 -2.80901,0.0703 -2.80902,0.0703 -2,0.85943 -2,0.85943 2.75,0.0703 2.75,0.0703 0.007,2.25 0.007,2.25 4.24281,2.73416 4.2428,2.73416 -1.00034,0.0158 -1.00033,0.0158 z m 20.80721,-16.11795 -0.55979,-0.5598 -0.68279,1.79313 -0.68278,1.79313 1.24258,-1.23333 1.24258,-1.23334 z M 35,127 33.75511,125.5 h 1 1 L 37,127 l 1.24489,1.5 h -1 -1 z M 70.25,113.03636 69,111.58441 v -1.48319 -1.48319 l 1.15451,-0.71352 1.15451,-0.71353 -0.80122,1.40451 -0.80121,1.40451 1.09485,-1 1.09484,-1 21.55186,0.28789 L 115,108.57577 v 1.57052 1.57053 l 2.43871,-0.61208 2.43872,-0.61208 0.56299,0.91093 0.56298,0.91093 -14.2517,0.20368 -14.2517,0.20368 -4,0.39061 -4,0.39062 -6.5,0.4926 -6.5,0.49259 z m 38.47917,-3.14053 -0.60417,-0.60416 -1.3125,0.52522 -1.3125,0.52522 1.91667,0.0789 1.91666,0.079 z m 15.68714,1.85417 0.74965,-0.75 2.41702,-0.0465 L 130,110.9071 v 0.79646 0.79647 h -3.16667 -3.16666 z M 132,111.5 v -1 h 2.05902 2.05901 l -0.61616,-0.99698 -0.61617,-0.99697 2.6143,0.99395 2.6143,0.99395 -0.61617,-0.99697 L 138.88197,108.5 H 142.44098 146 v 2 2 h -7 -7 z m -14.73097,-2.69299 1.76903,-0.46099 1.23097,0.49804 1.23097,0.49805 -3,-0.0371 -3,-0.0371 z m 10.48097,0.0307 1.25,-0.50439 1.25,0.50439 1.25,0.50439 h -2.5 -2.5 z m -41.44178,-2.08536 12.80821,-0.31298 12.19179,0.31409 12.19178,0.31409 -25,-10e-4 -25,-0.001 z M 93.25,91.75095 116,91.46244 l 22.75,0.28851 22.75,0.28851 H 116 70.5 Z M 70.17126,88.40261 68.86142,86.30523 69.43071,85.73594 70,85.16667 v 1.22568 1.22568 L 71.01631,86.98992 72.03262,86.3618 71.45729,85.4309 70.88197,84.5 h 0.62475 0.62476 l 1.92414,1.02977 1.92415,1.02977 -1.23043,1.97023 L 73.51891,90.5 H 72.5 71.48109 Z M 52.19745,47.97251 52,10.94501 53.5607,8.71679 55.12141,6.48858 58.01104,4.99429 60.90068,3.5 h 39.21633 39.21632 l -0.42314,0.42314 -0.42315,0.42315 -14.99352,0.25836 -14.99352,0.25837 -3.19007,0.83155 -3.19006,0.83155 0.3786,1.96591 0.3786,1.96591 -0.93854,0.58005 L 101,11.61803 V 10.05902 8.5 L 100.25,8.4257 99.5,8.3514 97,7.92291 94.5,7.49442 l 1.45225,0.93682 1.45226,0.93681 0.69296,-0.42827 0.69296,-0.42827 0.59333,1.54619 0.59333,1.5462 -0.82188,-0.50795 -0.82188,-0.50795 v 1.41202 1.41202 l 0.63108,-0.39003 0.63108,-0.39002 1.45226,0.9187 1.45225,0.9187 -2.05,0.0153 -2.05,0.0153 -1.14316,1.14316 -1.14316,1.14316 -7.55684,-0.0358 L 81,16.71471 v 0.89265 0.89266 h -1.05902 -1.05901 l 0.61803,-1 0.61803,-1 H 77.58377 75.0495 l 0.91141,2.39718 0.9114,2.39717 -0.60282,0.60283 -0.60282,0.60282 h -2.26595 -2.26594 l -0.63939,-2.01452 -0.63938,-2.01452 -0.94432,0.58362 -0.94431,0.58362 0.73545,1.1809 0.73546,1.1809 -0.31745,2.45403 -0.31744,2.45403 1.8483,-1.4058 1.8483,-1.4058 -1.3,1.45177 -1.3,1.45177 h -1.15492 -1.15491 l -0.60277,2.5 -0.60276,2.5 0.67341,3.75 0.6734,3.75 h -0.92474 -0.92474 l 0.65813,1.06489 0.65814,1.06488 -0.6359,3.38962 -0.6359,3.38961 -1.45747,-0.55928 -1.45748,-0.55929 0.48324,-0.78191 0.48325,-0.78191 -1.73899,-1.31508 -1.73899,-1.31507 1.22621,1.37797 1.2262,1.37798 -1.2262,1.51575 -1.22621,1.51576 1.14522,-0.68622 1.14521,-0.68621 0.55386,1.44333 0.55385,1.44332 L 62.19907,49.77203 60.5,49.1459 59.90389,48.26294 59.30777,47.37997 59.07575,50.69 l -0.23203,3.31002 -0.20258,2.69739 -0.20258,2.69738 -0.69511,0.69512 -0.69512,0.69511 -1.54674,-1.28368 -1.54675,-1.28369 0.64681,-2.10881 0.64681,-2.10882 -0.87423,0.82951 L 53.5,55.65905 52.94745,70.32953 52.39489,85.00002 Z m 5.16638,10.03323 -0.5734,-1.49425 -0.91153,0.56335 -0.91152,0.56336 0.57533,0.9309 0.57532,0.9309 h 0.9096 0.9096 z M 75,20.5 v -1 h -0.94098 -0.94099 l -0.61803,1 -0.61803,1 H 73.44098 75 Z M 69.38953,68.07273 68.84184,66.64545 69.17092,64.32273 69.5,62 l 34,-0.22731 34,-0.22732 -1.75,1.02701 -1.75,1.027 V 65.54969 67.5 h 2 2 v 1 1 H 103.96862 69.93723 Z M 68.07895,30.91667 68.15785,29 68.68307,30.3125 69.20829,31.625 68.60413,32.22917 68,32.83333 Z M 85.25,23.75279 98,23.44025 l 12.75,0.31254 12.75,0.31255 H 98 72.5 Z M 107,7.5 v -1 h 1.5 1.5 v 1 1 h -1.5 -1.5 z"
     id="path5" />
  <path
     style="fill:#5f5afa"
     d="m 64.25,206.78375 2.75,-0.41659 2.75,0.41659 2.75,0.41659 H 67 61.5 Z m 60.51166,0.009 2.26166,-0.4349 1.73834,0.45508 1.73834,0.45508 -4,-0.0202 -4,-0.0202 z m 12.48834,0.0179 1.75,-0.45732 1.75,0.45732 1.75,0.45733 h -3.5 -3.5 z m 15.5,0.0271 1.25,-0.50439 1.25,0.50439 1.25,0.50439 h -2.5 -2.5 z m 42.32895,-11.92105 0.0789,-1.91667 0.52522,1.3125 0.52522,1.3125 -0.60416,0.60417 L 195,196.83333 Z M 133.41747,185.41572 136.2916,182 h 0.66274 0.66273 l 2.94185,-2.5 2.94185,-2.5 2.23599,-2.86754 2.23599,-2.86753 -0.44239,-0.7158 -0.44238,-0.7158 H 148.54399 150 v 0.77432 0.77432 l -0.93637,0.5787 -0.93637,0.57871 -0.12608,1.73031 -0.12608,1.73031 -0.17136,4.09992 -0.17136,4.09992 -1.01619,-0.007 -1.01619,-0.007 -1.80902,0.15754 -1.80901,0.15753 0.56039,0.90674 0.5604,0.90674 -2.15775,-0.56426 -2.15775,-0.56427 0.58295,0.94324 0.58295,0.94324 -1.67658,0.0642 -1.67658,0.0642 -2.97833,0.81578 -2.97834,0.81578 z M 195.232,182.5 V 179 l 0.45733,1.75 0.45732,1.75 -0.45732,1.75 L 195.232,186 Z M 155,178.14226 v -1.40911 l 2.75,-0.52827 2.75,-0.52827 0.34293,0.33796 0.34293,0.33796 -3.09293,1.59941 L 155,179.55136 Z m 7.50782,-3.64226 0.93047,-1.5 -0.27819,-2.15449 -0.2782,-2.15449 1.05905,-0.65453 L 165,167.38197 v 1.02763 1.02763 l 1.5,-0.5756 1.5,-0.57561 0.0153,1.35699 0.0153,1.35699 0.94821,-1.5 0.94821,-1.5 1.03648,-0.125 1.03647,-0.125 0.62244,-0.125 0.62245,-0.125 -1.26495,-1.52417 -1.26494,-1.52416 0.6425,-0.6425 0.6425,-0.6425 v 0.99954 0.99955 l 1.79444,-0.1322 1.79445,-0.1322 2.45555,-1.82372 2.45556,-1.82373 -1.75,0.59166 -1.75,0.59166 v -0.86163 -0.86162 l 1.5,-0.57561 1.5,-0.5756 v -1.10281 -1.10282 l -1.58062,1.58062 -1.58062,1.58062 -0.82612,-0.51057 -0.82612,-0.51057 0.52337,2.00138 0.52337,2.00138 h -1.2833 -1.28329 l 0.63148,-0.63148 0.63148,-0.63149 -1.0723,-2.00361 -1.0723,-2.00362 -0.83814,1.35614 -0.83814,1.35614 -0.51471,-0.51471 -0.51471,-0.51471 0.55887,-2.13713 0.55887,-2.13714 1.65147,0.5783 1.65146,0.57829 -2.20819,-2.14749 -2.20815,-2.14749 h -1.4828 -1.4828 l -0.5682,0.91938 -0.56821,0.91938 1.62824,1.62824 1.62824,1.62824 -0.44507,0.44507 -0.44507,0.44507 -2.16737,-2.49269 L 164.01323,153.5 H 165.00661 166 v -0.96862 -0.96861 l -1.33631,0.51279 -1.33631,0.51279 -0.13856,-3.68571 -0.13856,-3.68571 -0.46437,-0.46438 -0.46438,-0.46437 -4.80012,1.83318 -4.80012,1.83319 -9.01064,-0.2494 -9.01063,-0.2494 -4,-0.22787 -4,-0.22788 0.21936,1.15807 0.21935,1.15807 -2.94947,-1.4714 -2.94948,-1.47139 -0.68392,-1.10661 -0.68393,-1.10662 1.66405,0.63856 1.66404,0.63855 0.11842,-1.21861 0.11842,-1.21862 -0.0488,-0.54107 -0.0488,-0.54107 3.56683,0.41641 3.56684,0.41641 -0.63786,-1.03208 -0.63786,-1.03208 1.98644,0.51946 1.98643,0.51947 1.76495,-0.77045 1.76494,-0.77044 1.17459,0.18424 1.1746,0.18424 0.5764,-0.93264 0.5764,-0.93264 1.99901,0.52275 1.999,0.52275 v -1.23907 -1.23908 L 145.5,138.5 147,139.74489 V 137.92244 136.1 l 1.2,1.2 1.2,1.2 h 0.85902 0.85901 l -0.72306,-1.16994 -0.72306,-1.16994 1.66405,0.63856 L 153,137.43723 V 136.46862 135.5 h 1.5 1.5 v -1.12244 -1.12245 l 1.5,1.24489 1.5,1.24489 v -1.09106 -1.09106 l 1.51134,0.57996 1.51134,0.57995 -0.69857,-1.86134 -0.69857,-1.86134 1.64342,1.33609 1.64343,1.33609 1.00013,-0.61812 1.00013,-0.61811 -0.64355,-1.71798 -0.64356,-1.71797 1.64342,1.33609 1.64343,1.33609 1.06012,-0.65519 1.06011,-0.65519 -0.57533,-0.9309 -0.57532,-0.9309 H 169.94098 171 l 0.59107,0.0666 0.59106,0.0666 1.48309,-1.81659 1.48309,-1.81659 -0.67869,1.32366 -0.6787,1.32365 3.85454,-2.12248 3.85454,-2.12249 2.6933,-1.67453 2.6933,-1.67454 0.49251,0.49251 0.49251,0.4925 -0.57041,4.25266 -0.5704,4.25266 -5.84454,3.60746 -5.84453,3.60745 0.64317,1.04068 0.64318,1.04069 -1.49738,-0.5746 -1.49738,-0.5746 v 1.34415 1.34416 l 2.86603,-1.48208 2.86603,-1.48209 -0.69674,-1.12735 -0.69674,-1.12735 1.71598,0.65849 1.71599,0.65848 -0.61096,-0.98854 -0.61095,-0.98855 1.30901,-0.11842 1.30902,-0.11842 0.82433,0.1432 0.82433,0.14319 -0.73838,-1.19471 -0.73837,-1.19472 1.71598,0.65849 1.71599,0.65848 -0.50574,-0.81829 -0.50573,-0.8183 4.92614,-3.75672 4.92614,-3.75673 5.53309,-5.97639 5.53308,-5.97639 4.08097,-6.0095 4.08097,-6.0095 2.92992,-6.26107 2.92991,-6.26108 1.48271,-7.74946 1.48272,-7.74946 -0.37539,-6.1671 -0.37539,-6.1671 -1.06026,-2.5 -1.06025,-2.5 -0.14561,0.5 -0.14562,0.5 -0.48304,2.98194 -0.48304,2.98194 -0.43473,0.43472 -0.43473,0.43473 -0.13288,-4.41666 -0.13287,-4.41667 -0.87744,8.5 -0.87744,8.5 -0.97792,2.5 -0.97791,2.5 0.69074,-3.5 0.69075,-3.5 -0.13164,-11.25 -0.13164,-11.25 h 1.09579 1.09579 l -0.58333,0.58333 -0.58333,0.58334 1.96782,1.96782 1.96781,1.96781 -0.65828,2.07408 -0.65829,2.07408 1.12809,-0.6972 1.12809,-0.6972 1.62328,3.82197 1.62327,3.82197 0.0224,1.25 0.0224,1.25 h 0.89235 0.89235 l -0.61803,1 -0.61803,1 0.78089,1.25 0.7809,1.25 0.23937,1 0.23937,1 0.90098,4 0.90099,4 -0.22944,8.5 -0.22943,8.5 -0.70201,4.45747 -0.702,4.45747 -0.65187,1.04253 -0.65186,1.04253 -0.29883,1.92152 -0.29883,1.92151 -1.10255,1.32849 -1.10254,1.32848 0.87245,0.0153 0.87244,0.0153 -1.30009,0.82466 -1.3001,0.82466 -0.16271,2.16003 -0.16264,2.16003 h -0.84621 -0.84621 l 0.61803,1 0.61803,1 H 220 218.88197 l 0.61803,1 0.61803,1 h -1.03996 -1.03997 l -0.6093,2.42764 -0.60929,2.42764 -1.47314,0.5653 -1.47313,0.56529 0.62239,1.00707 0.6224,1.00706 h -1.0904 -1.0904 l -0.66321,1.7283 -0.66321,1.7283 -2.78227,2.34112 -2.78226,2.34112 0.22686,0.69163 0.22686,0.69163 -7,6.94438 -7,6.94438 -0.6925,-0.18626 -0.69249,-0.18626 -2.14808,2.73083 -2.14807,2.73083 -0.65943,-0.10925 -0.65943,-0.10924 -2.24141,1.46863 -2.24142,1.46863 0.64592,1.04512 0.64593,1.04513 -0.95679,-0.59133 -0.9568,-0.59133 -6.17237,4.29549 -6.17237,4.2955 0.72465,0.80165 0.72466,0.80165 -1.22175,-0.70188 -1.22176,-0.70189 -2.73957,1.79156 L 161.57735,176 Z M 166,171.5 v -1 h -1 -1 v 1 1 h 1 1 z m 11.63772,-14.30439 0.69561,-0.69561 h -1.60765 -1.60765 l -0.56378,0.91222 -0.56378,0.91221 1.47582,-0.2166 1.47582,-0.21661 z M 180,154.05902 v -0.44099 L 179,153 l -1,-0.61803 v 1.05901 1.05902 h 1 1 z m -11.11976,-11.44397 3.38025,-1.80111 -1.84977,-0.70982 -1.84976,-0.70983 0.75752,0.75753 0.75752,0.75752 -3.288,1.75341 -3.288,1.75342 h 1 1 z M 191,171.12244 v -0.37755 l 1.75,-1.37245 1.75,-1.37244 -1.37244,1.75 -1.37245,1.75 H 191.37756 191 Z m -41.37646,-4.1611 -0.62354,-1.62491 0.0304,-0.66822 0.0304,-0.66821 1.06125,1.825 1.06126,1.82501 -0.46813,0.46812 -0.46812,0.46813 z M 165,166 163.75511,164.5 H 164.87756 166 v -1.10699 -1.10699 l -1.5,0.57561 -1.5,0.5756 V 162.46862 161.5 h 1.95974 1.95975 l -0.20975,2.99801 -0.20974,2.99802 -0.12756,0.002 -0.12755,0.002 z M 143.40499,158.25 141.5,156 l 2.5,1.98934 2.5,1.98935 0.41667,0.26065 0.41666,0.26066 h -1.01168 -1.01167 z M 168.5,154.5 l 0.61803,-1 H 169.55902 170 v 1 1 h -1.05902 -1.05901 z m -52.68204,-11.21796 0.9696,-0.9696 1.85622,0.39345 1.85622,0.39346 -2.82582,0.57615 -2.82583,0.57615 z M 89,137.55902 v -0.94099 l 0.98855,-0.61095 0.98854,-0.61096 -0.59553,1.55194 L 89.78602,138.5 H 89.39301 89 Z m 78,-8.11804 v -1.05901 l 1,0.61803 1,0.61803 v 0.44099 0.44098 h -1 -1 z m 21.38197,-4.13196 -0.73607,-1.19099 1.18328,-0.39442 1.18328,-0.39443 -0.61087,-0.98841 -0.61088,-0.98842 2.1383,1.32383 2.13829,1.32382 -1.54589,0.32568 -1.5459,0.32568 0.57126,0.92432 0.57126,0.92432 h -1 -1 z m -9.28158,-2.51354 1.3239,-2.20452 0.47833,0.47833 0.47833,0.47833 -1.80223,1.72619 L 177.77649,125 Z m 8.41451,-6.57669 1.75602,-2.78121 0.55898,0.55899 0.55899,0.55899 -2.315,2.22222 -2.315,2.22222 z m 9.0938,-9.14147 0.54594,-1.42268 1.61661,-0.62036 1.61662,-0.62035 -1.84892,2.04304 -1.84893,2.04303 h -0.31362 -0.31363 z M 205,95.5 v -1 h 1.05902 1.05901 l -0.61803,1 -0.61803,1 H 205.44098 205 Z m 5.5,-11 0.61803,-1 H 211.55902 212 v 1 1 h -1.05902 -1.05901 z m 2.65789,-6 V 76 l 0.50439,1.25 0.50439,1.25 -0.50439,1.25 -0.50439,1.25 z M 190.5,65.5 l -0.61803,-1 H 190.94098 192 v 1 1 h -0.44098 -0.44099 z m 2.83333,-0.44444 v -1.44445 l 0.77011,0.19445 0.7701,0.19444 3.09454,-3.5 3.09454,-3.5 -3.22381,4.75 -3.22381,4.75 h -0.64083 -0.64084 z M 189.6,60.9 l -0.64708,-1.68626 0.5,-0.5 0.5,-0.5 L 190.6,59.9 l 0.64708,1.68626 -0.5,0.5 -0.5,0.5 z M 193.21057,58.89914 191.92115,57.5 h 0.98041 0.98041 l 0.65915,1.06653 0.65915,1.06653 -0.35013,0.33261 L 194.5,60.29828 Z M 188.02211,53.067 186.8449,49.5 185.67245,49.4212 184.5,49.3424 l -6.5,0.22888 -6.5,0.22888 -3.5,0.36565 -3.5,0.36565 -1.89908,0.0352 -1.89908,0.0352 -1.05092,-1.05092 L 158.6,48.5 h 1.17432 1.17432 l 1.55136,-3 1.55136,-3 h -0.67869 -0.67869 l 1.99603,-1.75 1.99604,-1.75 1.19216,-2.25 1.19216,-2.25 h 1.26187 1.26186 l 3.77119,-3.86204 3.77118,-3.86205 0.20989,-1.38795 0.20988,-1.38796 0.73458,-1.17506 0.73459,-1.17507 -1.24235,-2.82493 L 178.54071,16 177.52035,15.26531 176.5,14.53063 l 1.5,-0.0507 1.5,-0.0507 -2.28136,-1.26653 -2.28137,-1.26654 0.69803,-0.69803 0.69803,-0.69813 h -1.22568 -1.22568 l 0.6224,-1.00706 0.62239,-1.00707 -1.55763,-0.59772 -1.55764,-0.59772 0.51057,-0.82612 L 173.03262,5.6382 172.01631,5.01008 171,4.38197 171.0703,2.19098 171.1406,0 l 0.75721,1.93362 0.75721,1.93363 0.76154,-1.23218 0.76153,-1.23219 1.41097,1.17101 1.41097,1.171 0.0318,-0.87245 0.0318,-0.87244 1.46819,1.94113 1.4682,1.94113 V 4.66808 3.45389 l 2.32983,1.52656 2.32982,1.52657 0.58916,-0.58916 0.58915,-0.58915 1.1162,2.08564 1.11621,2.08565 h 1.08726 1.08726 l -1.14813,-1.38341 -1.14813,-1.38341 5.97098,2.16204 5.97098,2.16204 0.80471,0.8807 0.8047,0.8807 -2,-0.78793 -2,-0.78792 -2.5,-0.40565 -2.5,-0.40566 3.67214,1.61015 3.67213,1.61015 0.54648,1.4241 0.54648,1.4241 -4.21861,0.11848 -4.21862,0.11849 -1.25,-0.16232 -1.25,-0.16232 -0.11848,1.29383 -0.11849,1.29384 0.18537,1.35035 0.18536,1.35035 -0.99778,-0.61666 -0.99778,-0.61666 -0.60484,0.97865 -0.60484,0.97865 -0.0907,4.51853 -0.0907,4.51854 -1.03108,-0.63725 -1.03109,-0.63724 0.56391,2.15637 0.5639,2.15637 h -0.75195 -0.75195 l 0.13287,2.4873 0.13286,2.48729 1.21271,1.21271 1.2127,1.2127 -0.0153,1.05 L 186.96942,44 186,42.5 185.03063,41 l -0.0153,1.19098 -0.0153,1.19099 1,0.61803 1,0.61803 V 45.55902 46.5 l -1.75,0.0634 -1.75,0.0634 2.14955,0.86723 2.14955,0.86723 1.20011,3.63639 1.20012,3.63638 -0.5,0.5 -0.5,0.5 z m 15.20793,0.433 2.45141,-3.5 3.75308,-5.25 3.75308,-5.25 h 0.47006 0.47007 l -4.05418,5.75 -4.05418,5.75 -2.62037,3 -2.62038,3 z M 217,34.12244 V 33.74489 L 218.75,32.37244 220.5,31 l -1.37244,1.75 -1.37245,1.75 H 217.37756 217 Z m -43.87782,-3.57382 2.18205,-2.95139 1.59788,-0.60994 1.59789,-0.60995 -3.44617,3.56133 -3.44616,3.56133 h -0.33377 -0.33377 z M 222,27.12244 V 26.74489 L 223.75,25.37244 225.5,24 l -1.37244,1.75 -1.37245,1.75 H 222.37756 222 Z M 224.46463,22.115 223.5,20.82593 212.75466,16.91297 202.00933,13 l -0.005,-0.61575 -0.005,-0.61575 10.75,3.99941 10.75,3.99941 1.44048,1.34253 1.44047,1.34253 -0.47584,0.47585 -0.47585,0.47584 z M 152.8125,2.81689 154.125,2.29167 154.72917,2.89583 155.33333,3.5 153.41667,3.421 151.5,3.3421 Z"
     id="path4" />
  <path
     style="fill:#039cfc"
     d="M 90.58483,197.10048 89.94708,193.70097 88.72354,192.7669 87.5,191.83284 79,190.73715 70.5,189.64145 62.25,187.02722 54,184.41299 v -1.01551 -1.01551 l -0.87433,0.54036 -0.87434,0.54037 -5.37566,-2.96323 -5.37567,-2.96324 0.97251,-0.0181 0.9725,-0.0181 -2.22426,-1.55793 -2.22426,-1.55794 -0.92915,0.57425 -0.92914,0.57424 -0.72361,-1.17082 -0.72361,-1.17082 1.40451,0.72867 1.40451,0.72866 -1.75,-1.4344 -1.75,-1.4344 V 169.63976 167.5 l -2.75,-0.0703 -2.75,-0.0703 2,-0.85943 2,-0.85943 2.80902,-0.0703 2.80901,-0.0702 -0.61803,-1 -0.61803,-1 H 39.44098 41 l 0.0153,-1.25 0.0153,-1.25 0.84552,1.33385 0.84552,1.33384 0.61134,-1.59312 0.61134,-1.59312 1.27782,0.25927 1.27783,0.25928 -0.27478,-1.32433 -0.27477,-1.32433 0.96331,0.59536 0.96332,0.59536 0.99421,-1.77103 0.99421,-1.77103 0.69506,1.80425 0.69505,1.80424 2.24177,-2.10603 2.24177,-2.10603 2.88043,0.61346 2.88042,0.61346 -6.23183,-2.88149 -6.23183,-2.88148 -5.26817,-3.35806 -5.26817,-3.35805 -7.05111,-7.17936 -7.05111,-7.17937 -3.73774,-7.11295 -3.73775,-7.11294 -1.45032,-4.77982 -1.45032,-4.77983 0.0786,-2.5 0.0786,-2.5 1.24465,4.50569 1.24465,4.50569 1.32387,2.47368 1.32387,2.47367 1.09207,1.04444 1.09206,1.04445 1,-0.0391 1,-0.0391 1.5,-0.92664 1.5,-0.92665 -1.4357,1.76818 -1.4357,1.76817 1.4357,0.90847 1.4357,0.90847 1.74153,0.0153 1.74152,0.0153 1.24902,2 1.24902,2 h 0.95946 0.95945 l -1.2,-1.2 -1.2,-1.2 v -1.02251 -1.0225 l 1.602,2.28717 1.602,2.28718 -0.59333,0.59332 -0.59332,0.59332 1.11377,1.34201 1.11377,1.34201 h 1.70324 1.70324 l 2.18346,2.32419 2.18346,2.32418 -0.75914,0.75915 -0.75915,0.75915 1,-0.20176 1,-0.20175 1.30902,0.11842 1.30901,0.11842 -0.63334,1.02478 -0.63335,1.02477 0.82433,-0.27081 0.82433,-0.27081 8.02737,4.18083 8.02737,4.18084 7.16843,1.98647 7.16843,1.98647 5.50769,0.68814 5.50768,0.68814 0.73909,-2.85941 0.73908,-2.85941 0.13638,-1.5 0.13638,-1.5 0.18636,-2.5 0.18637,-2.5 0.73468,1.05182 0.73469,1.05182 7.24293,5.80511 7.24293,5.80511 -0.64744,1.04758 -0.64744,1.04758 1.13797,-0.70331 1.13798,-0.7033 7.4018,5.72595 7.4018,5.72595 -0.13537,6.57285 -0.13538,6.57284 -1.24989,-0.25 L 120,174.50004 v 1.54545 1.54546 l -2.55114,2.55114 -2.55113,2.55113 0.32081,0.96244 0.32081,0.96243 4.39686,-4.05916 4.39686,-4.05916 0.37824,0.37825 0.37825,0.37825 -10.43098,9.19803 -10.43099,9.19803 -2.3638,1.52922 -2.36379,1.52923 3.15039,-2.85537 3.15039,-2.85537 4.65703,-3.84777 4.65703,-3.84777 -1.80108,-1.31699 -1.80109,-1.31698 -0.50634,0.76481 -0.50633,0.76481 -1.5,0.571 -1.5,0.571 2,0.14233 2,0.14233 -2.26454,0.90977 -2.26455,0.90977 -0.9607,2.52685 -0.96071,2.52684 -4.27475,0.0147 -4.27475,0.0147 -2.5,1.2703 -2.5,1.27029 0.32157,2.71497 0.32156,2.71496 H 91.68286 91.22258 Z M 129,172.12244 v -0.37755 l 1.75,-1.37245 1.75,-1.37244 -1.37244,1.75 -1.37245,1.75 H 129.37756 129 Z m -76.43571,-15.91557 0.68279,-1.79313 0.55979,0.5598 0.5598,0.55979 -1.24258,1.23334 L 51.88151,158 Z M 77.02383,134 l -0.0545,-2 -0.92832,1.46781 -0.92832,1.46782 -5.30636,-1.87005 -5.30637,-1.87005 -4.5,-2.23968 -4.5,-2.23968 -1.89653,-2.09874 -1.89653,-2.09874 0.72852,-32.74464 0.72851,-32.74464 0.96577,-1.5147 L 55.09546,54 l -0.57033,2.10882 -0.57033,2.10881 1.54675,1.28369 1.54674,1.28368 0.69512,-0.69511 0.69511,-0.69512 L 58.6411,56.69739 58.84368,54 l 0.23203,-3.31002 0.23202,-3.31003 0.59612,0.88297 0.59611,0.88296 1.69907,0.62613 1.69907,0.62613 -0.55385,-1.44332 -0.55386,-1.44333 -1.14521,0.68621 -1.14522,0.68622 1.22621,-1.51576 1.2262,-1.51575 -1.2262,-1.37798 -1.22621,-1.37797 1.73899,1.31507 1.73899,1.31508 -0.48325,0.78191 -0.48324,0.78191 1.45748,0.55929 1.45747,0.55928 0.6359,-3.38961 0.6359,-3.38962 L 66.54006,40.56489 65.88197,39.5 H 67 68.11803 l -0.59476,-0.96234 -0.59475,-0.96234 -0.091,-4.53251 -0.091,-4.53251 1.02915,-1.25515 L 68.80481,26 l 0.32262,-2 0.32261,-2 -0.74135,-1.1809 -0.74135,-1.1809 0.94431,-0.58362 0.94432,-0.58362 0.63938,2.01452 0.63939,2.01452 h 2.26594 2.26595 l 0.60282,-0.60282 0.60282,-0.60283 -0.9114,-2.39717 L 75.0495,16.5 h 2.53427 2.53426 l -0.61803,1 -0.61803,1 H 79.94098 81 v -0.89266 -0.89265 l 7.55684,0.0358 7.55684,0.0358 1.14316,-1.14316 L 98.4,14.5 l 2.05,-0.0153 2.05,-0.0153 -1.45225,-0.9187 -1.45226,-0.9187 -0.63108,0.39002 -0.63108,0.39003 V 12 10.58798 l 0.82188,0.50795 0.82188,0.50795 -0.59333,-1.5462 L 98.79043,8.51149 98.09747,8.93976 97.40451,9.36803 95.95225,8.43122 94.5,7.4944 97,7.92289 l 2.5,0.42849 0.75,0.0743 0.75,0.0743 v 1.55902 1.55901 l 0.93853,-0.58004 0.93854,-0.58005 -0.36588,-1.89986 -0.36588,-1.89986 1.5822,-0.60715 1.58221,-0.60715 7.09514,-0.43624 7.09514,-0.43624 17.17119,-0.61308 17.17119,-0.61308 1.97742,1.05828 1.97741,1.05828 4.6014,6.44827 L 167,18.35837 v 1.46746 1.46746 l -5.59635,7.24315 -5.59635,7.24315 -3.88455,6.34661 -3.88455,6.3466 -1.5191,3.63572 L 145,55.74423 v 2.34269 2.34269 l 1.75,0.90814 1.75,0.90814 13,0.52654 13,0.52654 1.75,0.70749 1.75,0.7075 -0.16004,4.14301 -0.16003,4.14301 -0.39777,-3.17553 -0.39777,-3.17553 -1.38984,-1.15346 -1.38983,-1.15346 -1.80236,1.04858 -1.80236,1.04858 1.18785,0.0304 1.18785,0.0304 -0.15173,2.25 -0.15173,2.25 -1.16707,1.20238 -1.16707,1.20238 -0.67191,-0.6719 -0.6719,-0.6719 0.65661,1.71109 0.65661,1.71109 -1.49325,0.57301 -1.49324,0.57302 0.55023,2.10408 0.55023,2.10409 -1.6318,-0.62618 -1.6318,-0.62618 -1.45751,1.45751 -1.45751,1.45753 -41.32143,0.23294 -41.32143,0.23294 40.5,0.53412 40.5,0.53412 -44.5,0.24825 -44.5,0.24826 -1.10097,0.73468 -1.10097,0.73469 -0.51492,2.77387 -0.51492,2.77386 1.0204,0.63065 1.0204,0.63064 -0.72867,-1.40451 -0.72866,-1.40451 1.4344,1.75 1.4344,1.75 41.88975,0.19268 41.88976,0.19268 -6.25,0.35504 -6.25,0.35503 v 0.95229 0.95228 h -1.05902 -1.05901 l 0.61803,-1 0.61803,-1 H 141.05902 140 v 1 1 h -1.55902 -1.55901 l 0.61095,-0.98855 0.61096,-0.98854 -1.55194,0.59553 L 135,95.71396 v 0.96838 0.96837 l -3.25,-0.31611 -3.25,-0.31611 0.14474,1.77583 0.14473,1.77583 -1.14473,-0.84967 -1.14474,-0.84966 -3.5,1.25814 -3.5,1.25814 0.78943,0.0564 0.78942,0.0564 -1.21501,1.30067 -1.215,1.30067 -3.07442,0.20419 -3.07442,0.20418 1.5,-0.98954 1.5,-0.98954 -2.14301,-0.0153 -2.14301,-0.0153 -0.57561,1.5 -0.5756,1.5 H 90.23138 70.4 l -1.2,1.2 -1.2,1.2 v 3.26482 3.26481 l 1.93426,1.03519 1.93426,1.03518 17.81574,0.21238 17.81574,0.21238 -10.85634,0.32253 -10.85634,0.32253 -1.46509,1.46509 -1.46509,1.46514 h 1.6562 1.65619 l -2.83152,3 -2.83152,3 H 79.25325 78 v 1 1 h 0.59227 0.59227 l 2.54259,-2 2.54259,-2 1.61514,0.079 1.61514,0.0789 -1.5,0.54834 -1.5,0.54833 -2.3775,2.12272 -2.3775,2.12272 -1.33336,3 -1.33336,3 z M 75,126.5 l -1.07037,-2 H 73.46482 73 l 0.25,1.25 0.25,1.25 -1.67459,-0.27652 -1.6746,-0.27652 -0.63442,1.02652 -0.63442,1.02652 h 3.5942 3.5942 z m 63,-58 v -1 h -2 -2 V 65.62197 63.74394 L 136.0684,62.37197 138.1368,61 104.8184,61.26791 71.5,61.53581 70.25,61.98652 69,62.43723 v 2.86472 2.86472 L 69.66667,68.83333 70.33333,69.5 H 104.16667 138 Z M 129,39.39421 V 38.5 h 1.32887 1.32888 l 0.21249,-5.2523 0.21249,-5.2523 -1.4601,-1.9977 L 129.16252,24 101.30448,23.65895 73.44645,23.3179 l -2.28622,1.85127 -2.28622,1.85127 -0.54934,4.09562 -0.54934,4.09563 1.13894,2.12813 1.13895,2.12813 27.22339,0.26603 L 124.5,40 l 2.25,0.14421 2.25,0.14422 z M 110,7.5 v -1 h -1.5 -1.5 v 1 1 h 1.5 1.5 z m -13,118 -1.5,-0.96937 1.19098,-0.0153 1.19099,-0.0153 0.61803,1 0.61803,1 -0.30901,-0.0153 -0.30902,-0.0153 z m -27.18204,-18.21796 0.9696,-0.9696 1.85622,0.39345 1.85622,0.39346 -2.82582,0.57615 -2.82583,0.57615 z m 58.97123,-0.52345 6.28919,-0.35606 5.71081,0.35965 5.71081,0.35965 -12,-0.004 -12,-0.004 z M 19.25218,86 l 0.0202,-4 0.4349,2.26166 0.4349,2.26166 L 19.6871,88.26166 19.232,90 Z m -0.0202,-7.5 V 75 l 0.45733,1.75 0.45732,1.75 -0.45732,1.75 L 19.23198,82 Z M 20.07893,72.91667 20.15783,71 l 0.52522,1.3125 0.52522,1.3125 -0.60416,0.60417 -0.60413,0.60416 z M 51.32812,62 l 0.008,-7 0.39359,3.7723 0.39359,3.77231 L 51.72164,65.7723 51.31998,69 Z m 4.21457,-3.4309 -0.57533,-0.9309 0.91152,-0.56336 0.91153,-0.56335 0.5734,1.49425 0.5734,1.49426 h -0.9096 -0.9096 z M 25.01529,56.80902 25.03059,56 l 0.96937,-1.5 0.96937,-1.5 0.0153,1.69098 0.0153,1.69099 -1,0.61803 -1,0.61803 z M 51.42612,33 51.42712,11 51.74664,22.30542 52.06615,33.61085 51.74526,44.30542 51.42474,55 Z M 23.99998,51.12244 v -0.37755 l 1.75,-1.37245 1.75,-1.37244 -1.37244,1.75 -1.37245,1.75 h -0.37755 -0.37756 z m 7.02006,-6.14661 1.26494,-1.52416 0.45764,0.45763 0.45763,0.45764 L 32.5411,45.43347 31.88195,46.5 H 30.81852 29.75509 Z M 72.49998,20.5 l 0.61803,-1 h 0.94099 0.94098 v 1 1 h -1.55902 -1.55901 z m -9.75,-17.66228 1.25,-0.50439 1.25,0.50439 1.25,0.50439 h -2.5 -2.5 z m 23,0 1.25,-0.50439 1.25,0.50439 1.25,0.50439 h -2.5 -2.5 z"
     id="path3" />
  <path
     style="fill:#1863f7"
     d="M 90.92298,207.28518 90.84598,207 l -0.4931,-4.5 -0.4931,-4.5 -1.1906,-2.5 -1.19059,-2.5 -3.48929,-0.61836 -3.48929,-0.61836 3.62756,-0.13164 3.62755,-0.13164 1.0323,1.25 1.0323,1.25 1.05258,3.5 1.05258,3.5 -0.21244,-2.96496 -0.21243,-2.96497 2.5,-1.27029 2.5,-1.2703 4.27475,-0.0147 4.27475,-0.0147 0.98729,-2.59677 0.98729,-2.59677 2.18441,-0.57123 2.18441,-0.57124 -1.94645,-0.76171 -1.94645,-0.76171 1.75,-0.0703 1.74999,-0.0704 v -1.02305 -1.02306 l 2.34439,1.53611 2.34438,1.5361 4.69906,-4.13628 4.69905,-4.13627 -0.3769,-0.37691 -0.37691,-0.37691 -4.39686,4.05916 -4.39686,4.05916 -0.32081,-0.96243 -0.32081,-0.96244 2.55113,-2.55113 L 120,177.59086 v -1.54546 -1.54545 l 1.24989,0.25 1.24989,0.25 0.13538,-6.57284 0.13537,-6.57285 -7.4018,-5.72595 -7.4018,-5.72595 -1.13798,0.7033 -1.13797,0.70331 0.66014,-1.06812 0.66013,-1.06812 -7.45959,-5.83639 -7.4596,-5.83639 -0.046,-0.68969 -0.046,-0.6897 19.86043,15.41906 19.86043,15.41906 1.16636,1.40538 1.16636,1.40537 -8.68243,8.12336 -8.68243,8.12335 -1.12162,-0.25757 -1.12161,-0.25756 -4.96386,3.99947 -4.96385,3.99947 -2.50889,2.42742 -2.50889,2.42742 2,-1.4031 2,-1.40311 5.91354,-5.01494 5.91354,-5.01493 -0.41354,1.17233 -0.41354,1.17234 -10,8.6484 -10,8.64841 -1.75,0.95506 -1.75,0.95507 z M 131.12756,170.75 132.5,169 l -1.75,1.37244 -1.75,1.37245 v 0.37755 0.37756 h 0.37756 0.37755 z M 121,206.5 l -9.5,-0.5 3,-1.25303 3,-1.25304 6,-1.53477 6,-1.53477 14,-5.08662 14,-5.08662 8.10852,-3.7456 8.10852,-3.7456 10.64148,-7.02814 10.64148,-7.02814 0.17947,8.64817 0.17946,8.64816 -0.14648,6.37519 -0.14648,6.37519 -1.54691,2.36088 -1.54691,2.36089 -2.69257,1.76392 L 186.58701,207 H 158.5435 130.5 Z m -64.15631,-1.90831 -2.42603,-1.90832 -2.80799,-5.15919 -2.80798,-5.1592 0.43905,-0.43905 0.43904,-0.43905 9.41011,4.36428 9.41011,4.36427 3,0.71001 3,0.71001 2.28187,1.4762 2.28186,1.47621 -0.59088,0.95607 L 77.88197,206.5 H 68.57584 59.26972 Z M 75.25,190.81067 77,190.35335 l 1.75,0.45732 1.75,0.45733 H 77 73.5 Z m 51.76803,-0.0786 0.018,-0.73204 4.23198,-3.43382 4.23197,-3.43383 -2.42431,2.68383 -2.42432,2.68382 1.42432,-0.0629 1.42431,-0.0629 6.90428,-2.69688 6.90427,-2.69689 0.30646,-3.49024 0.30646,-3.49024 0.17557,-1.5 0.17557,-1.5 1.0062,-1.27417 1.00619,-1.27416 -0.53507,-0.53507 -0.53506,-0.53507 -2.78106,3.80924 -2.78105,3.80923 -3.57638,2.93735 -3.57638,2.93735 4.65511,-4.93735 4.65512,-4.93735 2.09115,-3.5 2.09114,-3.5 0.004,1.41667 0.004,1.41666 0.63546,-0.63546 0.63546,-0.63545 -1.65009,-2.51835 -1.65008,-2.51834 -4.02069,-2.05121 -4.0207,-2.05121 0.68983,-1.11616 0.68983,-1.11617 -1.11477,0.68897 -1.11477,0.68896 -5.78974,-2.97831 -5.78974,-2.97831 -5.76651,-3.89332 -5.76651,-3.89332 5.26651,-1.14441 5.26651,-1.14442 4.5,-0.47258 4.5,-0.47258 -5.92187,1.21977 -5.92186,1.21977 -0.39274,1.17822 -0.39275,1.17823 -1.59943,-0.61377 -1.59944,-0.61376 0.68393,1.10662 0.68392,1.10661 2.94948,1.47139 2.94947,1.4714 -0.21935,-1.15807 L 126.5,147 l 4,0.22788 4,0.22787 9.01063,0.2494 9.01064,0.2494 4.80012,-1.83319 4.80012,-1.83318 0.46438,0.46437 0.46437,0.46438 0.13856,3.68571 0.13856,3.68571 1.33631,-0.51279 L 166,151.56277 v 0.96861 0.96862 h -0.99339 -0.99338 l 2.16736,2.49269 2.16737,2.49269 0.44507,-0.44507 0.44507,-0.44507 -1.62824,-1.62824 -1.62824,-1.62824 0.56821,-0.91938 0.5682,-0.91938 h 1.4828 1.4828 l 2.20818,2.14749 2.20819,2.14749 -1.65146,-0.57829 -1.65147,-0.5783 -0.55887,2.13714 -0.55887,2.13713 0.51471,0.51471 0.51471,0.51471 0.83814,-1.35614 0.83814,-1.35614 1.0723,2.00362 1.0723,2.00361 -0.63148,0.63149 -0.63148,0.63148 h 1.28329 1.2833 l -0.52337,-2.00138 -0.52337,-2.00138 0.82612,0.51057 0.82612,0.51057 1.58062,-1.58062 L 180,157.35714 v 1.10282 1.10281 l -1.5,0.5756 -1.5,0.57561 v 0.86162 0.86163 l 1.75,-0.59166 1.75,-0.59166 -2.45556,1.82373 -2.45555,1.82372 -1.79445,0.1322 -1.79444,0.1322 v -0.99955 -0.99954 l -0.6425,0.6425 -0.6425,0.6425 1.26494,1.52416 1.26495,1.52417 -0.62245,0.125 -0.62244,0.125 -1.03647,0.125 -1.03648,0.125 -0.94821,1.5 -0.94821,1.5 -0.0153,-1.35699 -0.0153,-1.35699 -1.5,0.57561 -1.5,0.5756 v -1.02763 -1.02763 l -1.05905,0.65452 -1.05905,0.65453 0.2782,2.15449 0.27819,2.15449 -0.83982,1.34977 -0.83982,1.34977 2.25577,-1.20726 2.25578,-1.20725 -1.35614,-0.83814 -1.35614,-0.83814 0.77541,-0.77542 0.77542,-0.77541 0.81845,1.32429 0.81845,1.32428 2.15518,-1.15342 2.15519,-1.15342 -0.68252,-1.10433 -0.68252,-1.10434 1.19985,0.74155 1.19985,0.74154 7.70466,-5.64327 7.70466,-5.64328 -4.5,4.10541 -4.5,4.1054 -9,5.61567 -9,5.61568 -7,3.30686 -7,3.30686 -9.75,3.51034 -9.75,3.51034 z m 33.8249,-14.71747 -0.34293,-0.33796 -2.75,0.52827 -2.75,0.52827 v 1.40911 1.4091 l 3.09293,-1.59942 3.09293,-1.59941 z m 5.86681,-11.51659 0.20975,-2.99801 H 164.95974 163 v 0.96862 0.96861 l 1.5,-0.5756 1.5,-0.57561 v 1.10699 1.10699 h -1.12244 -1.12245 L 165,166 l 1.24489,1.5 0.12755,-0.002 0.12756,-0.002 z M 146.91667,160.23934 146.5,159.97869 144,157.98934 141.5,156 l 1.90499,2.25 1.90499,2.25 h 1.01167 1.01168 z M 170,154.5 v -1 h -0.44098 -0.44099 l -0.61803,1 -0.61803,1 H 168.94098 170 Z m -99.1875,35.31689 1.3125,-0.52522 0.60417,0.60416 L 73.33333,190.5 71.41667,190.4211 69.5,190.3422 Z m -4,-1 1.3125,-0.52522 0.60417,0.60416 L 69.33333,189.5 67.41667,189.4211 65.5,189.3422 Z M 45.75,180.93427 41,178.46167 v -0.49768 -0.49768 L 46,180 l 5,2.53369 v 0.48316 0.48315 l -0.25,-0.0466 -0.25,-0.0466 z M 34.87244,173.75 33.5,172 l 1.75,1.37244 1.75,1.37245 V 175.12244 175.5 H 36.62244 36.24489 Z M 30.40499,170.25 28.5,168 l 2.25,1.90499 2.25,1.90499 V 172.15499 172.5 H 32.65499 32.30998 Z M 22.94617,163.75 19.5,160 l 3.75,3.44617 3.75,3.44616 V 167.19617 167.5 H 26.69617 26.39233 Z M 17.40499,157.25 15.5,155 l 2.25,1.90499 2.25,1.90499 v 0.34501 0.34501 h -0.34501 -0.34501 z m 157.14926,0.16222 0.56378,-0.91222 h 1.60765 1.60765 l -0.69561,0.69561 -0.69561,0.69561 -1.47582,0.21661 -1.47582,0.2166 z M 189.5,156.5 l 1.80998,-2 h 0.5 0.5 l -1.80998,2 -1.80998,2 h -0.5 -0.5 z M 178,153.44098 v -1.05901 l 1,0.61803 1,0.61803 v 0.44099 0.44098 h -1 -1 z m 20.5,-4.94098 3.9059,-4 h 0.5 0.5 l -3.9059,4 -3.9059,4 h -0.5 -0.5 z m -113,0.12509 3,-0.63829 0.52198,-5.18204 0.52197,-5.18205 0.76097,-0.76097 0.76097,-0.76097 -0.5012,5.03512 -0.50121,5.03511 -0.63873,1.6645 L 88.78602,149.5 85.64301,149.38169 82.5,149.26337 Z M 10,146.5 l -1.07037,-2 h 0.5 0.5 l 1.07037,2 1.07037,2 h -0.5 -0.5 z m 67.75,1.33772 1.25,-0.50439 1.25,0.50439 1.25,0.50439 H 79 76.5 Z m -3.9375,-1.02083 1.3125,-0.52522 0.60417,0.60416 L 76.33333,147.5 74.41667,147.4211 72.5,147.3422 Z m -4,-1 1.3125,-0.52522 0.60417,0.60416 L 72.33333,146.5 70.41667,146.4211 68.5,146.3422 Z M 167,142.5 l 3.5,-1.91617 h 1 1 L 169,142.5 l -3.5,1.91617 h -1 -1 z m 6,-2.44864 v -0.5 L 176,138 l 3,-1.55136 v 0.5 0.5 L 176,139 l -3,1.55136 z M 208,138 l 2.34863,-2.5 h 0.5 0.5 L 209,138 l -2.34863,2.5 h -0.5 -0.5 z m -66.1875,0.81689 1.3125,-0.52522 0.60417,0.60416 0.60416,0.60417 -1.91666,-0.079 -1.91667,-0.0789 z m -75.26512,-5.88045 -9.95263,-4.39724 -2.04737,-2.15283 -2.04738,-2.15282 3.01264,2.14579 3.01263,2.14579 7.34098,2.98744 7.34098,2.98743 H 74.60361 76 l 0.0703,-1.25 0.0703,-1.25 0.85943,2 0.85943,2 0.0703,-1.67327 0.0703,-1.67328 2.66844,-3.17126 2.66844,-3.17126 2.08156,-0.84208 2.08156,-0.84208 -1.61514,-0.0634 -1.61514,-0.0634 -2.54259,2 -2.54259,2 H 78.59227 78 v -1 -1 h 1.25325 1.25324 l 2.83152,-3 2.83152,-3 h -1.65619 -1.6562 l 1.46509,-1.46509 1.46509,-1.46509 10.85634,-0.32253 L 107.5,116.92476 89.68426,116.71238 71.86852,116.5 69.93426,115.46482 68,114.42963 V 111.16482 107.9 l 1.2,-1.2 1.2,-1.2 h 19.83138 19.83139 l 0.5756,-1.5 0.57561,-1.5 2.14301,0.0153 2.14301,0.0153 -1.5,0.98954 -1.5,0.98954 3.07442,-0.20418 3.07442,-0.20419 1.215,-1.30067 1.21501,-1.30067 -0.78942,-0.0564 -0.78943,-0.0564 3.5,-1.25814 3.5,-1.25814 1.14474,0.84966 1.14473,0.84967 -0.14473,-1.77583 -0.14474,-1.77583 3.25,0.31611 3.25,0.31611 v -0.96837 -0.96838 l 1.55194,-0.59554 1.55194,-0.59553 -0.61096,0.98854 -0.61095,0.9885 H 138.44098 140 v -1 -1 h 1.05902 1.05901 l -0.61803,1 -0.61803,1 H 141.94098 143 v -0.95228 -0.95229 l 6.25,-0.35503 6.25,-0.35504 -42.5,-0.42752 -42.5,-0.42752 46,-0.51516 46,-0.51516 0.32818,-2.87182 0.32818,-2.87182 -1.12723,-1.12818 L 160.90191,84 120.20095,83.47784 79.5,82.95569 120.82143,82.72784 162.14286,82.5 l 1.45751,-1.45751 1.45751,-1.45751 1.6318,0.62618 1.6318,0.62618 -0.55023,-2.10409 -0.55023,-2.10408 1.49324,-0.57302 1.49325,-0.57301 -0.65661,-1.71109 -0.65661,-1.71109 0.6719,0.6719 0.67191,0.6719 1.16707,-1.20238 1.16707,-1.20238 0.15173,-2.25 0.15173,-2.25 -1.18785,-0.0304 -1.18785,-0.0304 1.80236,-1.04858 1.80236,-1.04858 1.44764,1.20143 1.44764,1.20144 0.14191,3.12755 0.1419,3.12756 0.71619,-4 0.71619,-4 0.1419,20.60078 0.14191,20.60077 -1.11263,3.19169 -1.11262,3.19168 -5.68479,2.86967 -5.68479,2.86967 -11.66806,4.56196 -11.66806,4.56196 -10.28453,2.71782 -10.28452,2.71782 -6,0.0143 -6,0.0143 -7.75737,-3.83688 -7.75736,-3.83687 -4.15606,0.55744 -4.15606,0.55745 -2.58657,1.9169 -2.58658,1.9169 -1.1169,3.36197 -1.11691,3.36197 -0.88309,0.21121 -0.8831,0.2112 z M 98.5,125.5 l -0.61803,-1 -1.19099,0.0153 -1.19098,0.0153 1.5,0.96937 1.5,0.96937 0.30902,0.0153 0.30901,0.0153 z m 49.09262,-13.51299 0.63071,-2.51298 -1.24386,-1.49877 -1.24387,-1.49877 -38.1178,0.26175 L 69.5,107 l -0.32908,2.32273 -0.32908,2.32272 0.54769,1.42728 0.5477,1.42727 h 38.51233 38.51234 z M 43.87244,132.75 42.5,131 l 1.75,1.37244 1.75,1.37245 V 134.12244 134.5 H 45.62244 45.24489 Z M 158,133.5 l 1.5,-0.96937 h 1 1 L 160,133.5 l -1.5,0.96937 h -1 -1 z m 4,-1.39301 v -0.39301 l 1.55194,-0.59554 1.55194,-0.59553 -0.61096,0.98854 -0.61095,0.98855 H 162.94098 162 Z M 36.40499,126.25 34.5,124 l 2.25,1.90499 2.25,1.90499 v 0.34501 0.34501 h -0.34501 -0.34501 z m 33.1114,1.22348 0.63442,-1.02652 1.6746,0.27652 L 73.5,127 73.25,125.75 73,124.5 h 0.46482 0.46481 l 1.07037,2 1.07037,2 h -3.5942 -3.5942 z M 170,128.07037 v -0.5 l 2,-1.07037 2,-1.07037 v 0.5 0.5 l -2,1.07037 -2,1.07037 z m 7,-3.94793 v -0.37755 l 1.75,-1.37245 1.75,-1.37244 -1.37244,1.75 -1.37245,1.75 H 177.37756 177 Z M 51.43125,97 51.43225,73 51.74727,85.30735 52.06229,97.6147 51.74608,109.30735 51.42988,121 Z M 185.5,117.5 l 1.80998,-2 h 0.5 0.5 l -1.80998,2 -1.80998,2 h -0.5 -0.5 z m -158.96489,-4.58676 -1.69492,-2.58677 0.38247,-0.38247 0.38247,-0.38247 1.75397,2.96924 1.75397,2.96923 H 28.67155 28.23002 Z M 0.29966,109.5 V 104 l 0.41659,2.75 0.41659,2.75 -0.41659,2.75 L 0.29966,115 Z M 190,114.18709 v -0.31291 l 3.25,-2.93709 3.25,-2.93709 -2.93709,3.25 -2.93709,3.25 H 190.31291 190 Z m 8,-9.06465 v -0.37755 l 1.75,-1.37245 1.75,-1.37244 -1.37244,1.75 -1.37245,1.75 H 198.37756 198 Z m 4.51128,-5.99932 1.71874,-2.62312 h 0.42017 0.42018 l -1.04056,1.94431 -1.04056,1.9443 -1.09835,0.67882 -1.09835,0.67882 z M 1.07895,95.91667 1.15785,94 1.68307,95.3125 2.20829,96.625 1.60413,97.22917 1,97.83333 Z m 19,-3 L 20.15785,91 20.68307,92.3125 21.20829,93.625 20.60413,94.22917 20,94.83333 Z M 51.15789,70.5 V 68 l 0.50439,1.25 0.50439,1.25 -0.50439,1.25 -0.50439,1.25 z m 139.31819,-2.07536 -0.65869,-2.07536 0.5913,-0.59131 L 191,65.16667 v 1.78911 1.78911 l 1.66372,-1.37245 1.66372,-1.37244 -1.1989,2.25 -1.19891,2.25 h -0.39743 -0.39742 z m -17.92561,-4.91465 -3.94952,-0.76002 -10.02846,-0.1863 -10.02846,-0.18631 -0.50577,-0.50577 -0.50578,-0.50577 14.90168,0.31709 14.90168,0.31709 0.41541,1.25 0.41542,1.25 -0.83334,-0.115 L 176.5,64.27 Z M 16,60.12244 V 59.74489 L 17.75,58.37244 19.5,57 18.12756,58.75 16.75511,60.5 H 16.37756 16 Z M 145.232,57.5 V 54 l 0.45733,1.75 0.45732,1.75 -0.45732,1.75 L 145.232,61 Z m -123.732,-4 1.80998,-2 h 0.5 0.5 l -1.80998,2 -1.80998,2 h -0.5 -0.5 z M 27,53.559 V 52.61801 L 27.98855,52.00706 28.97709,51.3961 28.38156,52.94804 27.78602,54.5 H 27.39301 27 Z m 120,-2.47 v -0.82738 l 3.66003,-6.13081 3.66002,-6.13081 5.4786,-7.25 5.47859,-7.25 h 0.42016 0.42015 l -4.57711,6.25 -4.57712,6.25 -4.98166,7.95819 L 147,51.91639 Z m 11.44198,-0.49512 0.56001,-0.90612 1.99901,0.52275 1.999,0.52275 V 51.11663 51.5 h -2.55902 -2.55901 z M 27,48.12244 V 47.74489 L 28.75,46.37244 30.5,45 29.12756,46.75 27.75511,48.5 H 27.37756 27 Z M 161.5,45.5 l 1.55136,-3 h 0.5 0.5 l -1.55136,3 -1.55136,3 h -0.5 -0.5 z M 176,27.12244 V 26.74489 L 177.75,25.37244 179.5,24 l -1.37244,1.75 -1.37245,1.75 H 176.37756 176 Z m -9.29837,-6.58946 0.5151,-1.96977 L 163.5232,13.5316 159.82966,8.5 h 0.5 0.5 l 3.58517,4.88398 L 168,18.26795 v 1.55701 1.55701 l -0.90674,0.56039 -0.90674,0.5604 z M 53.5,7.5 l 1.80998,-2 h 0.5 0.5 l -1.80998,2 -1.80998,2 h -0.5 -0.5 z M 157.13922,5.46673 154.77843,3.5 h 0.9558 0.95579 l 1.80998,2 1.80998,2 L 159.90499,7.4667 159.5,7.4334 Z m -86.85905,-2.703 4.78018,-0.37578 4.21982,0.38132 4.21983,0.38132 -9,-0.006 -9,-0.006 z m 34.5328,-0.0122 16.31298,-0.30164 15.68702,0.30237 15.68703,0.30237 -32,-7.3e-4 -32,-7.3e-4 z"
     id="path2" />
</svg>
