<svg width="1440" height="900" viewBox="0 0 1440 900" fill="none" xmlns="http://www.w3.org/2000/svg">
  <rect width="1440" height="900" rx="40" fill="#F5F3FF"/>
  <rect x="48" y="48" width="1344" height="804" rx="32" fill="#FAFBFF" stroke="#E7E1FF" stroke-width="2"/>
  <rect x="84" y="84" width="1272" height="72" rx="24" fill="#FFFFFF"/>
  <rect x="120" y="106" width="168" height="28" rx="14" fill="#4338CA"/>
  <rect x="312" y="106" width="98" height="28" rx="14" fill="#EDE9FE"/>
  <rect x="434" y="106" width="128" height="28" rx="14" fill="#EDE9FE"/>
  <rect x="84" y="188" width="280" height="580" rx="28" fill="#FFFFFF"/>
  <rect x="396" y="188" width="496" height="580" rx="28" fill="#FFFFFF"/>
  <rect x="924" y="188" width="384" height="580" rx="28" fill="#FFFFFF"/>
  <rect x="116" y="224" width="140" height="18" rx="9" fill="#1E293B"/>
  <rect x="116" y="258" width="208" height="12" rx="6" fill="#94A3B8"/>
  <rect x="116" y="306" width="216" height="108" rx="24" fill="#EEF2FF"/>
  <circle cx="164" cy="360" r="22" fill="#818CF8"/>
  <rect x="198" y="332" width="94" height="12" rx="6" fill="#3730A3"/>
  <rect x="198" y="356" width="112" height="10" rx="5" fill="#6366F1"/>
  <rect x="198" y="378" width="78" height="10" rx="5" fill="#A5B4FC"/>
  <rect x="116" y="440" width="216" height="34" rx="17" fill="#F8FAFC"/>
  <rect x="138" y="452" width="108" height="10" rx="5" fill="#475569"/>
  <rect x="116" y="490" width="216" height="34" rx="17" fill="#F8FAFC"/>
  <rect x="138" y="502" width="94" height="10" rx="5" fill="#475569"/>
  <rect x="116" y="540" width="216" height="34" rx="17" fill="#F8FAFC"/>
  <rect x="138" y="552" width="126" height="10" rx="5" fill="#475569"/>
  <rect x="428" y="224" width="232" height="24" rx="12" fill="#1E293B"/>
  <rect x="428" y="262" width="282" height="14" rx="7" fill="#94A3B8"/>
  <rect x="428" y="308" width="432" height="168" rx="28" fill="#F8FAFC" stroke="#E2E8F0" stroke-width="2"/>
  <path d="M466 432C514 392 560 382 602 396C644 410 676 384 724 350C772 316 808 320 824 334" stroke="#4F46E5" stroke-width="12" stroke-linecap="round"/>
  <circle cx="466" cy="432" r="12" fill="#4F46E5"/>
  <circle cx="602" cy="396" r="12" fill="#4F46E5"/>
  <circle cx="724" cy="350" r="12" fill="#4F46E5"/>
  <circle cx="824" cy="334" r="12" fill="#4F46E5"/>
  <rect x="428" y="512" width="204" height="96" rx="24" fill="#EEF2FF"/>
  <rect x="454" y="542" width="112" height="12" rx="6" fill="#3730A3"/>
  <rect x="454" y="566" width="142" height="10" rx="5" fill="#6366F1"/>
  <rect x="656" y="512" width="204" height="96" rx="24" fill="#ECFDF5"/>
  <rect x="682" y="542" width="100" height="12" rx="6" fill="#166534"/>
  <rect x="682" y="566" width="128" height="10" rx="5" fill="#22C55E"/>
  <rect x="428" y="632" width="432" height="104" rx="24" fill="#FFFFFF" stroke="#E2E8F0" stroke-width="2"/>
  <rect x="456" y="664" width="296" height="14" rx="7" fill="#E2E8F0"/>
  <rect x="456" y="692" width="350" height="14" rx="7" fill="#E2E8F0"/>
  <rect x="956" y="224" width="164" height="24" rx="12" fill="#1E293B"/>
  <rect x="956" y="262" width="210" height="14" rx="7" fill="#94A3B8"/>
  <rect x="956" y="310" width="320" height="124" rx="24" fill="#FFFFFF" stroke="#DDD6FE" stroke-width="2"/>
  <rect x="986" y="344" width="100" height="58" rx="16" fill="#4F46E5"/>
  <rect x="1112" y="344" width="134" height="12" rx="6" fill="#3730A3"/>
  <rect x="1112" y="368" width="120" height="10" rx="5" fill="#6366F1"/>
  <rect x="1112" y="390" width="104" height="10" rx="5" fill="#A5B4FC"/>
  <rect x="956" y="466" width="320" height="232" rx="24" fill="#F8FAFC"/>
  <rect x="984" y="498" width="264" height="34" rx="17" fill="#EEF2FF"/>
  <rect x="1006" y="510" width="160" height="10" rx="5" fill="#3730A3"/>
  <rect x="984" y="548" width="264" height="34" rx="17" fill="#ECFEFF"/>
  <rect x="1006" y="560" width="124" height="10" rx="5" fill="#0F766E"/>
  <rect x="984" y="598" width="264" height="34" rx="17" fill="#FDF2F8"/>
  <rect x="1006" y="610" width="146" height="10" rx="5" fill="#BE185D"/>
  <rect x="984" y="648" width="264" height="34" rx="17" fill="#FFF7ED"/>
  <rect x="1006" y="660" width="132" height="10" rx="5" fill="#C2410C"/>
</svg>
