<svg width="1440" height="900" viewBox="0 0 1440 900" fill="none" xmlns="http://www.w3.org/2000/svg">
  <rect width="1440" height="900" rx="40" fill="#EEF4FF"/>
  <rect x="48" y="48" width="1344" height="804" rx="32" fill="#F8FAFC" stroke="#D7E3F3" stroke-width="2"/>
  <rect x="84" y="84" width="1272" height="72" rx="24" fill="#FFFFFF"/>
  <circle cx="124" cy="120" r="10" fill="#FB7185"/>
  <circle cx="156" cy="120" r="10" fill="#FBBF24"/>
  <circle cx="188" cy="120" r="10" fill="#34D399"/>
  <rect x="240" y="102" width="222" height="36" rx="18" fill="#E0E7FF"/>
  <rect x="84" y="188" width="368" height="580" rx="28" fill="#FFFFFF"/>
  <rect x="488" y="188" width="820" height="580" rx="28" fill="#FFFFFF"/>
  <rect x="120" y="224" width="192" height="24" rx="12" fill="#0F172A"/>
  <rect x="120" y="262" width="284" height="16" rx="8" fill="#94A3B8"/>
  <rect x="120" y="316" width="296" height="120" rx="24" fill="#EFF6FF" stroke="#7DD3FC" stroke-width="3" stroke-dasharray="12 10"/>
  <rect x="214" y="334" width="108" height="108" rx="28" fill="#0EA5E9"/>
  <path d="M268 356V420M268 356L240 384M268 356L296 384" stroke="white" stroke-width="14" stroke-linecap="round" stroke-linejoin="round"/>
  <rect x="150" y="470" width="236" height="16" rx="8" fill="#1E293B"/>
  <rect x="176" y="500" width="184" height="12" rx="6" fill="#94A3B8"/>
  <rect x="120" y="560" width="296" height="74" rx="24" fill="#EEF2FF"/>
  <rect x="144" y="584" width="134" height="12" rx="6" fill="#4338CA"/>
  <rect x="144" y="608" width="244" height="10" rx="5" fill="#818CF8"/>
  <rect x="520" y="224" width="268" height="24" rx="12" fill="#0F172A"/>
  <rect x="520" y="262" width="520" height="16" rx="8" fill="#94A3B8"/>
  <rect x="520" y="312" width="744" height="196" rx="28" fill="#F8FAFC" stroke="#E2E8F0" stroke-width="2"/>
  <rect x="552" y="344" width="280" height="132" rx="22" fill="#FFFFFF" stroke="#D7E3F3" stroke-width="2"/>
  <rect x="584" y="374" width="160" height="14" rx="7" fill="#1E293B"/>
  <rect x="584" y="402" width="208" height="10" rx="5" fill="#94A3B8"/>
  <rect x="584" y="426" width="154" height="10" rx="5" fill="#CBD5E1"/>
  <rect x="864" y="344" width="368" height="34" rx="17" fill="#DCFCE7"/>
  <rect x="886" y="356" width="138" height="10" rx="5" fill="#166534"/>
  <rect x="864" y="394" width="368" height="34" rx="17" fill="#E0F2FE"/>
  <rect x="886" y="406" width="196" height="10" rx="5" fill="#0369A1"/>
  <rect x="864" y="444" width="368" height="34" rx="17" fill="#F5F3FF"/>
  <rect x="886" y="456" width="168" height="10" rx="5" fill="#6D28D9"/>
  <rect x="520" y="540" width="744" height="196" rx="28" fill="#FFFFFF" stroke="#E2E8F0" stroke-width="2"/>
  <rect x="552" y="576" width="680" height="18" rx="9" fill="#E2E8F0"/>
  <rect x="552" y="612" width="598" height="18" rx="9" fill="#E2E8F0"/>
  <rect x="552" y="648" width="634" height="18" rx="9" fill="#E2E8F0"/>
  <rect x="552" y="684" width="486" height="18" rx="9" fill="#E2E8F0"/>
</svg>
